<svg width="42" height="42" viewBox="0 0 42 42" fill="none" xmlns="http://www.w3.org/2000/svg">
<path d="M20.8561 42C32.3745 42 41.7121 32.598 41.7121 21C41.7121 9.40202 32.3745 0 20.8561 0C9.33757 0 0 9.40202 0 21C0 32.598 9.33757 42 20.8561 42Z" fill="#2C3ACF"/>
<path d="M7.30707 27.6679C7.23303 27.6679 7.1574 27.6523 7.08602 27.6191C6.81865 27.4957 6.70094 27.1777 6.82344 26.9085L13.6054 11.9853C13.7279 11.7161 14.0437 11.5976 14.3111 11.7209C14.5785 11.8443 14.6962 12.1623 14.5737 12.4315L7.79175 27.3547C7.70227 27.5515 7.50946 27.6679 7.30707 27.6679Z" fill="white"/>
<path d="M20.8725 27.6679C20.6707 27.6679 20.4773 27.5515 20.3878 27.3547L13.6054 12.4315C13.4829 12.1623 13.6006 11.8437 13.8679 11.7209C14.1353 11.5976 14.4517 11.7161 14.5737 11.9853L21.3561 26.9085C21.4786 27.1777 21.3609 27.4963 21.0936 27.6191C21.0217 27.6523 20.9466 27.6679 20.8725 27.6679Z" fill="white"/>
<path d="M20.8715 27.6679C20.7974 27.6679 20.7218 27.6523 20.6504 27.6191C20.383 27.4957 20.2653 27.1777 20.3878 26.9085L27.1703 11.9853C27.2928 11.7161 27.6087 11.5976 27.876 11.7209C28.1434 11.8443 28.2611 12.1623 28.1386 12.4315L21.3561 27.3547C21.2667 27.552 21.0739 27.6679 20.8715 27.6679Z" fill="white"/>
<path d="M34.4375 27.6679C34.2356 27.6679 34.0422 27.5515 33.9528 27.3547L27.1703 12.4315C27.0478 12.1623 27.1655 11.8437 27.4329 11.7209C27.7003 11.5976 28.0166 11.7161 28.1386 11.9853L34.9211 26.9085C35.0436 27.1777 34.9259 27.4963 34.6585 27.6191C34.5866 27.6523 34.5115 27.6679 34.4375 27.6679Z" fill="white"/>
<path d="M7.27406 29.7916C8.39805 29.7916 9.30922 28.902 9.30922 27.8046C9.30922 26.7072 8.39805 25.8176 7.27406 25.8176C6.15007 25.8176 5.23889 26.7072 5.23889 27.8046C5.23889 28.902 6.15007 29.7916 7.27406 29.7916Z" fill="white"/>
<path d="M20.856 29.7916C21.98 29.7916 22.8912 28.902 22.8912 27.8046C22.8912 26.7072 21.98 25.8176 20.856 25.8176C19.732 25.8176 18.8209 26.7072 18.8209 27.8046C18.8209 28.902 19.732 29.7916 20.856 29.7916Z" fill="white"/>
<path d="M34.438 29.7916C35.562 29.7916 36.4732 28.902 36.4732 27.8046C36.4732 26.7072 35.562 25.8176 34.438 25.8176C33.314 25.8176 32.4028 26.7072 32.4028 27.8046C32.4028 28.902 33.314 29.7916 34.438 29.7916Z" fill="white"/>
</svg>
