<svg width="64" height="64" viewBox="0 0 64 64" fill="none" xmlns="http://www.w3.org/2000/svg">
<rect width="64" height="64" rx="12" fill="#FBAF1D"/>
<g clip-path="url(#clip0_446_15366)">
<path d="M49.8449 26.4466H47.9034C47.2409 26.4466 46.735 26.103 46.4908 25.5118L43.459 17.2141C43.1709 16.4259 42.4312 16.0018 41.5982 15.9003H41.5981H41.5982C39.3574 15.6263 36.4443 14.8983 35.3846 14.8983C34.0791 14.8983 33.2757 15.3 31.3678 15.3C29.4598 15.3 28.4555 12.8899 27.7525 12.1869C27.0495 11.4839 23.6353 12.9903 21.6269 12.9903C19.6184 12.9903 17.4092 14.2957 17.4092 16.0029C17.4092 17.71 15.5012 18.8147 13.3924 20.9234C11.2836 23.0322 14.0451 28.1034 15.6016 29.6599C17.1581 31.2164 19.2167 31.5679 21.6268 30.5637C24.0369 29.5594 24.8905 30.0113 26.0452 31.1662C27.2001 32.321 27.2502 33.978 28.6562 35.3838C30.0621 36.7897 29.3592 42.0116 29.3592 44.3212C29.3592 46.6309 31.2671 49.543 32.7735 51.0493C34.2798 52.5557 34.4806 52.0536 36.7903 51.0493C39.1 50.0451 40.9075 45.2249 43.0163 43.1162C45.1251 41.0074 44.7234 37.8944 44.7234 36.0868C44.7234 34.2792 48.6398 30.7645 50.6482 28.7562C52.6567 26.7478 49.8449 26.4466 49.8449 26.4466Z" fill="white"/>
<path d="M17.9012 28.7006C16.2839 27.0833 13.0455 21.4639 15.5793 18.9609H15.5127C14.885 19.535 14.1522 20.1639 13.3927 20.9234C11.2838 23.0323 14.0454 28.1035 15.6019 29.6599C17.1584 31.2164 19.217 31.5679 21.627 30.5637C21.8969 30.4513 22.1463 30.3581 22.3798 30.281C20.6436 30.4768 19.1303 29.9298 17.9012 28.7006Z" fill="white"/>
<path d="M31.3267 44.1452C31.3267 41.758 32.0297 36.3608 30.6238 34.9076C29.2179 33.4545 29.1677 31.742 28.0128 30.5483C26.858 29.3547 26.0044 28.8876 23.5944 29.9256C23.4853 29.9726 23.3772 30.0157 23.2695 30.0569C24.5175 29.8556 25.2015 30.3233 26.0457 31.1675C27.2005 32.3223 27.2507 33.9793 28.6566 35.3851C30.0625 36.791 29.3596 42.0129 29.3596 44.3225C29.3596 46.6322 31.2676 49.5443 32.7738 51.0506C33.8965 52.1733 34.2945 52.18 35.3802 51.695C33.7925 50.4387 31.3267 46.82 31.3267 44.1452Z" fill="white"/>
<path d="M50.0962 40.1545C50.8368 40.4984 51.0502 41.3093 50.548 42.4642C50.0459 43.619 51.8786 45.7529 50.0962 47.5354C48.3137 49.3178 47.8367 48.5897 46.7823 47.5354C45.728 46.481 45.6024 45.7529 46.1798 45.1755C46.7573 44.5981 46.707 42.5395 47.4351 41.8114C48.163 41.0833 48.6903 39.5018 50.0962 40.1545Z" fill="white"/>
<path d="M48.7945 47.5354C47.7401 46.481 47.6146 45.7529 48.192 45.1755C48.7694 44.5981 48.7192 42.5395 49.4473 41.8114C49.8106 41.4481 50.124 40.8721 50.5216 40.4674C50.4091 40.3395 50.2674 40.2339 50.0962 40.1545C48.6903 39.5017 48.1631 41.0834 47.4351 41.8114C46.707 42.5395 46.7573 44.5981 46.1798 45.1755C45.6024 45.7529 45.728 46.481 46.7823 47.5354C47.6872 48.4402 48.1676 49.1031 49.4119 48.147C49.2202 47.9725 49.0206 47.7615 48.7945 47.5354Z" fill="white"/>
</g>
<defs>
<clipPath id="clip0_446_15366">
<rect width="40" height="40" fill="white" transform="translate(12 12)"/>
</clipPath>
</defs>
</svg>
