<svg width="96" height="96" viewBox="0 0 96 96" fill="none" xmlns="http://www.w3.org/2000/svg">
<g filter="url(#filter0_di_12_815)">
<path fill-rule="evenodd" clip-rule="evenodd" d="M16 20V39.8198C16 42.4386 17.2723 44.8872 19.4628 46.3224C26.2334 50.7584 41.16 60 48 60C54.84 60 69.7666 50.7584 76.5372 46.3224C78.7276 44.8872 80 42.4386 80 39.8198V20C80 13.3726 74.6274 8 68 8H28C21.3726 8 16 13.3726 16 20ZM31 20.0002C29.3432 20.0002 28 21.3434 28 23.0002C28 24.657 29.3432 26.0002 31 26.0002H49C50.6568 26.0002 52 24.657 52 23.0002C52 21.3434 50.6568 20.0002 49 20.0002H31ZM31 34.0002C29.3432 34.0002 28 35.3434 28 37.0002C28 38.657 29.3432 40.0002 31 40.0002H61C62.6568 40.0002 64 38.657 64 37.0002C64 35.3434 62.6568 34.0002 61 34.0002H31Z" fill="#FFD666"/>
</g>
<g style="mix-blend-mode:overlay" filter="url(#filter1_i_12_815)">
<path fill-rule="evenodd" clip-rule="evenodd" d="M16 20V39.8198C16 42.4386 17.2723 44.8872 19.4628 46.3224C26.2334 50.7584 41.16 60 48 60C54.84 60 69.7666 50.7584 76.5372 46.3224C78.7276 44.8872 80 42.4386 80 39.8198V20C80 13.3726 74.6274 8 68 8H28C21.3726 8 16 13.3726 16 20ZM31 20.0002C29.3432 20.0002 28 21.3434 28 23.0002C28 24.657 29.3432 26.0002 31 26.0002H49C50.6568 26.0002 52 24.657 52 23.0002C52 21.3434 50.6568 20.0002 49 20.0002H31ZM31 34.0002C29.3432 34.0002 28 35.3434 28 37.0002C28 38.657 29.3432 40.0002 31 40.0002H61C62.6568 40.0002 64 38.657 64 37.0002C64 35.3434 62.6568 34.0002 61 34.0002H31Z" fill="white" fill-opacity="0.04"/>
</g>
<path d="M28 23.0002C28 21.3434 29.3432 20.0002 31 20.0002H49C50.6568 20.0002 52 21.3434 52 23.0002C52 24.657 50.6568 26.0002 49 26.0002H31C29.3432 26.0002 28 24.657 28 23.0002Z" fill="#FBAF1D"/>
<path d="M28 37.0002C28 35.3434 29.3432 34.0002 31 34.0002H61C62.6568 34.0002 64 35.3434 64 37.0002C64 38.657 62.6568 40.0002 61 40.0002H31C29.3432 40.0002 28 38.657 28 37.0002Z" fill="#FBAF1D"/>
<path d="M16 25.0042C13.962 26.5169 12.1609 27.9005 10.7158 29.0306C8.30778 30.9136 6.79834 33.6906 6.59464 36.7406C6.31746 40.891 6 47.8582 6 58.0002C6 67.5914 6.56784 74.3432 7.09838 78.5586C7.53582 82.0342 9.86276 84.7904 13.2935 85.4986C18.7945 86.634 29.2988 88.0002 48 88.0002C66.7012 88.0002 77.2056 86.634 82.7064 85.4986C86.1372 84.7904 88.4642 82.0342 88.9016 78.5586C89.4322 74.3432 90 67.5914 90 58.0002C90 47.8582 89.6826 40.891 89.4054 36.7406C89.2016 33.6906 87.6922 30.9136 85.2842 29.0306C83.8391 27.9005 82.038 26.5169 80 25.0042V39.82C80 42.4388 78.7276 44.8874 76.5372 46.3226C69.7666 50.7586 54.84 60.0002 48 60.0002C41.16 60.0002 26.2334 50.7586 19.4628 46.3226C17.2723 44.8874 16 42.4388 16 39.82V25.0042Z" fill="#3873FF"/>
<g style="mix-blend-mode:overlay" filter="url(#filter2_i_12_815)">
<path d="M16 25.0042C13.962 26.5169 12.1609 27.9005 10.7158 29.0306C8.30778 30.9136 6.79834 33.6906 6.59464 36.7406C6.31746 40.891 6 47.8582 6 58.0002C6 67.5914 6.56784 74.3432 7.09838 78.5586C7.53582 82.0342 9.86276 84.7904 13.2935 85.4986C18.7945 86.634 29.2988 88.0002 48 88.0002C66.7012 88.0002 77.2056 86.634 82.7064 85.4986C86.1372 84.7904 88.4642 82.0342 88.9016 78.5586C89.4322 74.3432 90 67.5914 90 58.0002C90 47.8582 89.6826 40.891 89.4054 36.7406C89.2016 33.6906 87.6922 30.9136 85.2842 29.0306C83.8391 27.9005 82.038 26.5169 80 25.0042V39.82C80 42.4388 78.7276 44.8874 76.5372 46.3226C69.7666 50.7586 54.84 60.0002 48 60.0002C41.16 60.0002 26.2334 50.7586 19.4628 46.3226C17.2723 44.8874 16 42.4388 16 39.82V25.0042Z" fill="white" fill-opacity="0.04"/>
</g>
<defs>
<filter id="filter0_di_12_815" x="12" y="4" width="80" height="68" filterUnits="userSpaceOnUse" color-interpolation-filters="sRGB">
<feFlood flood-opacity="0" result="BackgroundImageFix"/>
<feColorMatrix in="SourceAlpha" type="matrix" values="0 0 0 0 0 0 0 0 0 0 0 0 0 0 0 0 0 0 127 0" result="hardAlpha"/>
<feOffset dx="4" dy="4"/>
<feGaussianBlur stdDeviation="4"/>
<feColorMatrix type="matrix" values="0 0 0 0 0.717647 0 0 0 0 0.431373 0 0 0 0 0 0 0 0 0.16 0"/>
<feBlend mode="normal" in2="BackgroundImageFix" result="effect1_dropShadow_12_815"/>
<feBlend mode="normal" in="SourceGraphic" in2="effect1_dropShadow_12_815" result="shape"/>
<feColorMatrix in="SourceAlpha" type="matrix" values="0 0 0 0 0 0 0 0 0 0 0 0 0 0 0 0 0 0 127 0" result="hardAlpha"/>
<feOffset dx="-1" dy="-1"/>
<feGaussianBlur stdDeviation="1"/>
<feComposite in2="hardAlpha" operator="arithmetic" k2="-1" k3="1"/>
<feColorMatrix type="matrix" values="0 0 0 0 0.717647 0 0 0 0 0.431373 0 0 0 0 0 0 0 0 0.48 0"/>
<feBlend mode="normal" in2="shape" result="effect2_innerShadow_12_815"/>
</filter>
<filter id="filter1_i_12_815" x="14" y="6" width="66" height="54" filterUnits="userSpaceOnUse" color-interpolation-filters="sRGB">
<feFlood flood-opacity="0" result="BackgroundImageFix"/>
<feBlend mode="normal" in="SourceGraphic" in2="BackgroundImageFix" result="shape"/>
<feColorMatrix in="SourceAlpha" type="matrix" values="0 0 0 0 0 0 0 0 0 0 0 0 0 0 0 0 0 0 127 0" result="hardAlpha"/>
<feOffset dx="-2" dy="-2"/>
<feGaussianBlur stdDeviation="2"/>
<feComposite in2="hardAlpha" operator="arithmetic" k2="-1" k3="1"/>
<feColorMatrix type="matrix" values="0 0 0 0 0 0 0 0 0 0 0 0 0 0 0 0 0 0 0.4 0"/>
<feBlend mode="normal" in2="shape" result="effect1_innerShadow_12_815"/>
</filter>
<filter id="filter2_i_12_815" x="4" y="23.0042" width="86" height="64.996" filterUnits="userSpaceOnUse" color-interpolation-filters="sRGB">
<feFlood flood-opacity="0" result="BackgroundImageFix"/>
<feBlend mode="normal" in="SourceGraphic" in2="BackgroundImageFix" result="shape"/>
<feColorMatrix in="SourceAlpha" type="matrix" values="0 0 0 0 0 0 0 0 0 0 0 0 0 0 0 0 0 0 127 0" result="hardAlpha"/>
<feOffset dx="-2" dy="-2"/>
<feGaussianBlur stdDeviation="2"/>
<feComposite in2="hardAlpha" operator="arithmetic" k2="-1" k3="1"/>
<feColorMatrix type="matrix" values="0 0 0 0 0 0 0 0 0 0 0 0 0 0 0 0 0 0 0.4 0"/>
<feBlend mode="normal" in2="shape" result="effect1_innerShadow_12_815"/>
</filter>
</defs>
</svg>
