<svg width="64" height="64" viewBox="0 0 64 64" fill="none" xmlns="http://www.w3.org/2000/svg">
<rect width="64" height="64" rx="12" fill="#00054C"/>
<path d="M18.6313 40.8608L17.0938 40.4302C16.7711 40.3396 16.4275 40.3584 16.1166 40.4835C15.8057 40.6087 15.545 40.8332 15.375 41.1221L14.4813 42.6436C14.2502 43.0362 14.1513 43.4926 14.1993 43.9456C14.2473 44.3986 14.4396 44.8242 14.7478 45.1596L15.23 45.6849C15.3631 45.8297 15.5449 45.9204 15.7407 45.9396L18.5247 46.2124C18.7236 46.2319 18.9225 46.1762 19.0822 46.0561L21.8125 44.008C21.9533 43.9022 22.0553 43.753 22.1025 43.5833L22.33 42.7686C22.3597 42.6624 22.411 42.5634 22.4808 42.478C22.5505 42.3926 22.6372 42.3225 22.7353 42.2722C22.8335 42.2219 22.941 42.1924 23.0511 42.1857C23.1612 42.1789 23.2715 42.1951 23.375 42.233L24.5032 42.6464C24.6974 42.7174 24.9115 42.7103 25.1007 42.6268C25.2034 42.5816 25.3146 42.5585 25.4268 42.5591C25.5391 42.5597 25.65 42.584 25.7522 42.6303C25.8545 42.6766 25.9459 42.744 26.0204 42.8279C26.0949 42.9119 26.1509 43.0106 26.1847 43.1177L26.61 44.4643C26.6433 44.5698 26.6981 44.6672 26.771 44.7505C26.8439 44.8337 26.9332 44.9008 27.0335 44.9477L28.0647 45.4289C28.2515 45.5163 28.4649 45.528 28.6602 45.4617C28.8555 45.3954 29.0176 45.2561 29.1125 45.073L29.916 43.5246C29.9649 43.4302 30.0322 43.3466 30.1139 43.2785C30.1955 43.2105 30.29 43.1594 30.3916 43.1283C30.4932 43.0972 30.6001 43.0867 30.7058 43.0974C30.8116 43.108 30.9142 43.1397 31.0075 43.1905L31.695 43.5655C31.8612 43.6555 31.99 43.8015 32.0587 43.9776C32.1273 44.1536 32.1314 44.3483 32.07 44.5271L32.0257 44.6564C31.9159 44.9753 31.8837 45.3157 31.9315 45.6495C31.9794 45.9833 32.106 46.3009 32.301 46.5761L32.9847 47.5414C33.0504 47.6342 33.1352 47.712 33.2333 47.7694C33.3314 47.8268 33.4407 47.8626 33.5538 47.8745C33.6668 47.8863 33.7811 47.8739 33.889 47.838C33.9969 47.8021 34.0959 47.7436 34.1794 47.6664L35.6553 46.3018C35.7909 46.1771 35.8792 46.0094 35.9053 45.8271L36.1678 43.9714C36.1887 43.8243 36.2501 43.6859 36.3452 43.5718C36.4403 43.4576 36.5653 43.3722 36.7063 43.3252L37.2603 43.1408C37.4194 43.0877 37.5577 42.9859 37.6558 42.8499C37.7538 42.7138 37.8066 42.5504 37.8066 42.3827V39.7114C37.8066 39.4628 37.9054 39.2243 38.0812 39.0485C38.257 38.8727 38.4954 38.7739 38.7441 38.7739H41.3228C41.4325 38.774 41.541 38.7966 41.6416 38.8403C41.7422 38.8841 41.8327 38.9481 41.9075 39.0283L43.1182 40.3271C43.2064 40.4219 43.3163 40.4938 43.4386 40.5366C43.5608 40.5794 43.6916 40.5918 43.8197 40.5727L49.1303 39.7861C49.3077 39.7599 49.4711 39.6748 49.5943 39.5444C49.7174 39.414 49.7931 39.246 49.8091 39.0674C49.8355 38.7779 49.7713 38.4874 49.6254 38.236C49.4794 37.9846 49.2589 37.7848 48.9944 37.6643L46.75 36.6421C46.6468 36.595 46.5548 36.5265 46.4801 36.4411C46.4054 36.3557 46.3497 36.2553 46.3168 36.1467C46.2839 36.0382 46.2745 35.9238 46.2892 35.8113C46.3039 35.6988 46.3425 35.5907 46.4022 35.4943L47.2844 34.0702C47.482 33.7512 47.5943 33.3866 47.6103 33.0117C47.6263 32.6368 47.5456 32.264 47.376 31.9293L46.6153 30.4293C46.55 30.3003 46.5209 30.156 46.531 30.0117C46.5412 29.8675 46.5903 29.7287 46.6732 29.6102L48.0969 27.573C48.1686 27.4703 48.2151 27.3521 48.2326 27.2281C48.2502 27.1041 48.2384 26.9776 48.1981 26.859C48.1579 26.7404 48.0903 26.6329 48.0008 26.5452C47.9114 26.4576 47.8025 26.3921 47.6832 26.3543L45.4625 25.6505C45.3007 25.5992 45.1593 25.4978 45.059 25.3608C44.9587 25.2238 44.9047 25.0584 44.9047 24.8886V24.2236C44.9048 24.0882 44.8704 23.9549 44.8048 23.8364C44.7392 23.7179 44.6445 23.618 44.5297 23.5461L44.0675 23.2571C43.935 23.1746 43.8296 23.0551 43.7644 22.9133L42.2419 19.5852C42.1979 19.489 42.1734 19.385 42.1697 19.2793L42.1244 17.918C42.1099 17.4836 41.9406 17.0687 41.647 16.7482C41.3534 16.4277 40.9549 16.2227 40.5235 16.1702L40.2003 16.1308C40.0147 16.1083 39.8271 16.1516 39.6701 16.2531C39.5131 16.3546 39.3966 16.5079 39.341 16.6864L37.4316 22.8136C37.3084 23.2072 37.1086 23.5725 36.8438 23.8886L35.8822 25.0361C35.7815 25.1559 35.6478 25.2434 35.4978 25.2879C35.3477 25.3324 35.1879 25.3318 35.0382 25.2863C34.8885 25.2409 34.7554 25.1524 34.6554 25.032C34.5555 24.9116 34.4931 24.7645 34.476 24.6089L34.1747 21.8255C34.1434 21.5363 34.0319 21.2616 33.853 21.0323C33.674 20.803 33.4345 20.6283 33.1616 20.5277L32.6444 20.3371C32.2849 20.2047 31.8887 20.2132 31.5352 20.3607C31.1817 20.5082 30.897 20.7838 30.7382 21.1324L28.5822 25.8633C28.5374 25.9618 28.4731 26.0501 28.3932 26.123L26.6678 27.6943C26.3321 28.0002 26.0692 28.3775 25.8986 28.7985C25.7279 29.2195 25.6539 29.6734 25.6819 30.1268L25.74 31.0643C25.7469 31.1756 25.7771 31.2843 25.8285 31.3833C25.88 31.4824 25.9516 31.5695 26.0387 31.6392C26.1259 31.7089 26.2267 31.7595 26.3346 31.7879C26.4425 31.8163 26.5552 31.8217 26.6653 31.8039L29.2903 31.3789C29.4243 31.3573 29.5506 31.3019 29.6572 31.2179C29.7638 31.1339 29.8473 31.0241 29.8997 30.8989L31.1903 27.8202C31.2463 27.6867 31.3325 27.568 31.442 27.4734C31.5516 27.3787 31.6816 27.3108 31.8218 27.2748C31.962 27.2388 32.1086 27.2357 32.2502 27.2659C32.3918 27.2961 32.5245 27.3586 32.6378 27.4486L32.9938 27.7299C33.101 27.815 33.1846 27.9262 33.2365 28.0529C33.2883 28.1796 33.3068 28.3174 33.29 28.4533L32.9485 31.2318C32.9241 31.429 32.8272 31.6102 32.6766 31.7399L29.2003 34.7327C29.0882 34.8294 28.9513 34.8929 28.805 34.9161L25.0938 35.5089C24.2094 35.6503 23.3672 35.9855 22.6275 36.4905L20.6053 37.8708C20.395 38.0147 20.2162 38.2 20.0799 38.4154C19.9436 38.6307 19.8526 38.8716 19.8125 39.1233L19.6375 40.2171C19.6198 40.3285 19.5787 40.4349 19.5168 40.5293C19.455 40.6237 19.3739 40.704 19.2789 40.7648C19.1838 40.8256 19.077 40.8656 18.9654 40.8821C18.8537 40.8987 18.7399 40.8914 18.6313 40.8608Z" fill="white"/>
<path d="M18.6116 29.4961L19.5966 27.8755C19.7259 27.6634 19.917 27.496 20.1443 27.3959C20.3717 27.2958 20.6242 27.2679 20.8679 27.3158L21.9335 27.5242C22.2328 27.5831 22.499 27.7524 22.6793 27.9985C22.8595 28.2446 22.9405 28.5495 22.9063 28.8526L22.6148 31.4095C22.5875 31.6487 22.5107 31.8795 22.3892 32.0873C22.2677 32.2951 22.1042 32.4753 21.9091 32.6164L19.0226 34.7042C18.8197 34.851 18.5874 34.952 18.3417 35.0003C18.096 35.0485 17.8428 35.043 17.5994 34.9839L17.1798 34.8823C16.9035 34.8153 16.6594 34.6535 16.4901 34.4251C16.3208 34.1967 16.237 33.9162 16.2532 33.6323L16.3576 31.8289C16.3777 31.4805 16.5026 31.1464 16.7159 30.8702C16.9292 30.594 17.2209 30.3887 17.5529 30.2811L17.6654 30.2448C18.0603 30.1167 18.3962 29.851 18.6116 29.4961Z" fill="white"/>
</svg>
