<svg width="64" height="64" viewBox="0 0 64 64" fill="none" xmlns="http://www.w3.org/2000/svg">
<rect width="64" height="64" rx="12" fill="#3873FF"/>
<g clip-path="url(#clip0_446_15343)">
<path d="M35.6757 12.6302C35.6757 12.6302 35.2935 13.0124 35.6757 14.0315C36.0579 15.0506 34.699 15.7725 35.5058 17.0039C36.3126 18.2353 37.5441 17.6409 38.3933 18.66C39.2426 19.6791 38.7755 20.7407 40.5165 21.038C42.2576 21.3352 41.3658 22.0995 42.6822 22.0995C43.9985 22.0995 43.4465 21.1653 44.8903 21.5475C46.334 21.9297 43.9986 20.1462 43.1918 18.6175C42.385 17.0888 43.7862 15.4752 42.6397 14.1163C41.4932 12.7575 37.3318 11.059 35.6757 12.6302Z" fill="white"/>
<path d="M42.8303 19.4465C41.0893 19.1492 41.5564 18.0877 40.7071 17.0685C39.8578 16.0494 38.6264 16.6439 37.8196 15.4124C37.0128 14.181 38.3716 13.4591 37.9894 12.44C37.9295 12.2803 37.8901 12.138 37.8633 12.0085C36.9976 11.9583 36.2074 12.1253 35.6757 12.6298C35.6757 12.6298 35.2935 13.012 35.6757 14.0311C36.0579 15.0503 34.699 15.7721 35.5058 17.0035C36.3126 18.2349 37.5441 17.6405 38.3933 18.6596C39.2426 19.6788 38.7755 20.7403 40.5165 21.0376C42.2576 21.3349 41.3658 22.0992 42.6822 22.0992C43.9986 22.0992 43.4465 21.1649 44.8903 21.5471C45.7359 21.771 45.2849 21.2517 44.604 20.476C43.8585 20.3281 44.3586 19.7074 42.8303 19.4465Z" fill="white"/>
<path d="M32.6097 18.1847C32.0111 17.3241 32.0485 16.9313 31.4685 16.2607C31.1967 15.9465 31.1797 15.622 31.2383 15.3659C31.3276 14.9756 30.8876 14.6722 30.5505 14.8884C29.9893 15.2483 29.4793 16.0691 29.5976 16.6132C29.7847 17.4738 28.8306 17.9228 28.868 18.3531C28.9054 18.7834 30.5143 18.5402 30.9259 19.1907C31.3375 19.8413 31.8987 19.0266 32.4039 19.1575C32.9091 19.2884 33.2084 19.0452 32.6097 18.1847Z" fill="white"/>
<path d="M46.169 28.7189C46.4636 27.924 46.7417 27.7674 46.9188 27.0727C47.0019 26.747 47.2093 26.5859 47.4064 26.5065C47.7068 26.3855 47.7048 25.9533 47.4057 25.8294C46.9076 25.6231 46.1272 25.6638 45.8207 25.9938C45.3359 26.5155 44.5971 26.0896 44.3288 26.3132C44.0605 26.5368 44.9652 27.4924 44.7235 28.0661C44.4819 28.6399 45.2819 28.636 45.4283 29.0317C45.5747 29.4274 45.8743 29.5138 46.169 28.7189Z" fill="white"/>
<path d="M45.3457 51.327C45.2325 49.7417 41.7222 50.6476 40.9295 49.855C40.1368 49.0623 39.0045 47.6469 36.5699 47.9866C34.1353 48.3263 34.9279 46.5145 34.3618 46.2315C33.7956 45.9484 31.8139 47.5903 31.3044 45.552C30.7949 43.5137 33.1162 41.5887 34.8714 42.438C36.6265 43.2873 37.0229 41.5887 37.8722 42.0983C38.7214 42.6079 39.4008 43.8535 40.2501 43.1175C41.0994 42.3815 38.495 41.0226 39.231 39.8902C39.967 38.7579 40.5332 37.9086 40.2501 36.7196C39.9671 35.5306 41.7788 34.5035 41.4957 33.1204C41.2126 31.7372 43.3641 31.3976 43.1943 30.5483C43.0244 29.699 41.6656 28.963 41.6656 28.2836C41.6656 27.6042 42.7979 26.9813 41.7222 25.849C40.6465 24.7166 39.4009 23.471 38.7214 24.4901C38.3592 25.0336 37.9968 24.9331 37.5574 24.8325C38.0634 25.7436 38.3519 26.7921 38.3519 27.9082C38.3519 30.4155 36.8971 32.5823 34.7858 33.6122C34.6075 33.6994 34.4588 33.8372 34.3613 34.01L32.3525 37.5695C32.2011 37.8379 31.8145 37.8379 31.6631 37.5695L29.6545 34.01C29.5568 33.8369 29.4078 33.699 29.2292 33.6119C27.162 32.603 25.7243 30.5043 25.6656 28.0633C25.6065 25.6051 26.9267 23.4572 28.926 22.3533C28.6605 22.2329 28.3854 22.0551 28.1055 21.8008C26.7042 20.5269 24.4961 21.5884 23.3071 18.2763C22.1182 14.9641 17.6454 16.8326 16.697 18.8283C16.697 18.8283 15.961 20.0173 16.697 20.6401C17.433 21.2629 16.0742 22.3953 19.6411 22.6218C23.2081 22.8483 20.0941 26.8115 22.5286 30.2652C24.9632 33.719 20.1507 35.1344 22.0757 39.0411C24.0007 42.9478 24.2838 44.9294 25.6426 45.2691C27.0014 45.6089 26.5485 44.1933 27.2279 44.533C27.9074 44.8727 28.4736 49.0059 31.814 49.1191C35.1545 49.2324 35.2677 50.6478 37.1361 50.3081C39.0046 49.9684 38.3818 52.4596 41.1561 51.7802C43.9303 51.1006 45.459 52.9124 45.3457 51.327Z" fill="white"/>
<path d="M40.9296 49.8578C40.1369 49.0652 39.0046 47.6497 36.57 47.9894C34.1354 48.3291 34.928 46.5173 34.3618 46.2342C33.7957 45.9512 31.814 47.5931 31.3045 45.5548C31.1704 45.0185 31.2337 44.4906 31.4297 44.0185C30.7663 43.0261 30.4423 41.999 30.1003 41.828C29.4208 41.4883 29.8738 42.9038 28.515 42.5641C27.1561 42.2244 26.873 40.2428 24.948 36.336C23.5631 33.5255 25.6652 32.0043 26.0475 30.086C25.8165 29.4536 25.6826 28.7744 25.6656 28.066C25.6649 28.0363 25.6653 28.0067 25.665 27.977C25.5882 27.8413 25.5013 27.7026 25.4009 27.5602C22.9663 24.1065 26.0803 20.1432 22.5134 19.9167C18.9464 19.6902 20.3053 18.5579 19.5693 17.9351C19.1822 17.6076 19.2024 17.1237 19.3083 16.7383C18.1488 17.1509 17.1018 17.9792 16.697 18.8311C16.697 18.8311 15.961 20.0201 16.697 20.6429C17.433 21.2656 16.0742 22.3981 19.6411 22.6245C23.2081 22.851 20.0941 26.8143 22.5286 30.268C24.9632 33.7217 20.1507 35.1371 22.0757 39.0438C24.0007 42.9506 24.2838 44.9321 25.6426 45.2719C27.0014 45.6116 26.5486 44.1961 27.2279 44.5358C27.9073 44.8755 28.4736 49.0087 31.8139 49.1219C35.1544 49.2352 35.2677 50.6506 37.1361 50.3109C39.0045 49.9712 38.3817 52.4624 41.156 51.783C43.9303 51.1035 45.4589 52.9153 45.3457 51.33C45.2325 49.7446 41.7222 50.6505 40.9296 49.8578Z" fill="white"/>
<path d="M36.7213 23.665C37.4642 23.6003 38.2122 22.6819 38.053 22.2043C37.8699 21.6552 37.2211 21.5721 36.8052 21.023C36.6129 20.7692 36.2891 20.4905 35.9964 20.2642C35.6392 19.988 35.1352 20.0095 34.8001 20.3122C34.433 20.6438 34.0266 21.6243 34.3113 21.9973C35.2414 22.36 36.0645 22.9358 36.7213 23.665Z" fill="white"/>
<path d="M31.8574 21.5252C28.3137 21.6066 25.5486 24.5114 25.6338 28.0551C25.6927 30.5081 27.1376 32.6173 29.215 33.6312C29.3945 33.7188 29.5442 33.8573 29.6424 34.0313L31.661 37.6085C31.8133 37.8783 32.2017 37.8783 32.3539 37.6085L34.3726 34.0312C34.4706 33.8574 34.62 33.719 34.7993 33.6315C36.9211 32.5963 38.3831 30.4188 38.3831 27.899C38.3831 24.328 35.4472 21.4427 31.8574 21.5252Z" fill="white"/>
<path d="M32.3934 34.0312C32.2952 33.8572 32.1455 33.7187 31.9659 33.6311C29.8885 32.6172 28.4436 30.5082 28.3847 28.055C28.3097 24.9346 30.4452 22.3106 33.376 21.6725C32.8881 21.5657 32.3801 21.5131 31.8574 21.5251C28.3137 21.6065 25.5486 24.5114 25.6338 28.055C25.6927 30.5082 27.1376 32.6173 29.215 33.6311C29.3945 33.7188 29.5442 33.8572 29.6424 34.0312L31.661 37.6085C31.8133 37.8782 32.2017 37.8782 32.3539 37.6085L33.3829 35.7849L32.3934 34.0312Z" fill="white"/>
<path d="M33.9255 30.9854C35.6291 29.9324 36.1566 27.6977 35.1036 25.9941C34.0506 24.2905 31.8159 23.763 30.1123 24.816C28.4086 25.869 27.8812 28.1037 28.9342 29.8073C29.9872 31.511 32.2219 32.0384 33.9255 30.9854Z" fill="white"/>
<path d="M31.1337 27.9021C31.1337 26.3872 32.0634 25.09 33.3831 24.5482C32.9588 24.3741 32.4946 24.2773 32.0076 24.2773C30.0056 24.2773 28.3828 25.9002 28.3828 27.9021C28.3828 29.904 30.0056 31.5269 32.0076 31.5269C32.4946 31.5269 32.9588 31.4302 33.3831 31.256C32.0633 30.7142 31.1337 29.417 31.1337 27.9021Z" fill="white"/>
</g>
<defs>
<clipPath id="clip0_446_15343">
<rect width="40" height="40" fill="white" transform="translate(12 12)"/>
</clipPath>
</defs>
</svg>
