<svg width="64" height="64" viewBox="0 0 64 64" fill="none" xmlns="http://www.w3.org/2000/svg">
<rect width="64" height="64" rx="12" fill="#00B159"/>
<path d="M42.749 46.3674C42.1339 46.4755 41.4307 46.6574 41.1691 47.2244C40.9856 47.6222 41.1096 48.1385 41.4539 48.4094C41.837 48.7109 42.3943 48.6964 42.7919 48.9785C43.2773 49.323 43.4559 50.0582 44.0255 50.2309C44.2808 50.3083 44.5555 50.2476 44.8135 50.1799C45.3593 50.0365 45.897 49.8622 46.4232 49.6582C46.5884 49.5941 46.7631 49.5184 46.857 49.3681C47.3261 48.6179 46.8822 46.7221 46.0492 46.3433C45.2778 45.9925 43.5363 46.2289 42.749 46.3674Z" fill="white"/>
<path d="M46.8566 49.3681C46.7631 49.5187 46.5884 49.5943 46.4233 49.658C46.0408 49.8062 45.6526 49.939 45.2605 50.0541C45.3458 50.0026 45.4216 49.939 45.4747 49.8545C46.0094 48.9977 45.5029 46.8338 44.5519 46.4014C44.3473 46.308 44.0832 46.2516 43.7869 46.221C44.5922 46.1365 45.5351 46.1099 46.0489 46.3434C46.8823 46.722 47.3261 48.6184 46.8566 49.3681Z" fill="white"/>
<path d="M29.9538 15.7553L28.6538 16.0852C28.348 16.1627 28.1028 16.3906 28.0031 16.6898L27.6289 17.8125C27.5029 18.1906 27.149 18.4456 26.7504 18.4456C26.5204 18.4456 26.2986 18.36 26.1283 18.2054L25.4424 17.5831C25.0848 17.2587 24.5379 17.2634 24.186 17.5942L20.9815 20.6064C20.5533 21.009 20.1735 21.4601 19.8497 21.9506L19.6045 22.3222C18.864 23.4443 17.8376 24.3486 16.6312 24.9419L13.8918 26.2891C13.1801 26.6391 12.6139 27.2278 12.2918 27.9525C11.8979 28.8389 11.903 29.8516 12.3058 30.734L15.2959 37.2836C15.4804 37.6878 15.4873 38.1509 15.3149 38.5604L15.2548 38.703C15.004 39.2986 15.1389 39.9867 15.5958 40.4437C16.1315 40.9794 16.9708 41.0625 17.6012 40.6423L19.8168 39.1652C20.036 39.0191 20.2879 38.9298 20.5501 38.9052L22.8658 38.6881C23.0397 38.6718 23.2055 38.6066 23.344 38.5002L25.3879 36.9278C25.4975 36.8435 25.6246 36.7848 25.7598 36.7561L29.5698 35.9455C29.8031 35.8959 30.0465 35.9381 30.2494 36.0635L34.5582 38.7272C34.8631 38.9156 35.2493 38.9112 35.5497 38.7159C36.2184 38.2813 37.1158 38.6396 37.3013 39.4152L37.8243 41.6021C37.9015 41.9252 38.1143 42.1994 38.4081 42.3544L39.1426 42.742C40.5494 43.4845 42.1442 43.7948 43.7267 43.6338C45.6743 43.4358 47.4367 42.3923 48.5469 40.7798L50.6121 37.7805C50.6768 37.6865 50.7236 37.5814 50.75 37.4705L51.9252 32.5494C52.1009 31.8136 51.9637 31.038 51.5464 30.407L48.5918 25.9409C48.3275 25.5413 48.0237 25.1694 47.685 24.8307L46.5345 23.6802C45.9213 23.067 45.5417 22.2587 45.4613 21.3952L45.2559 19.1873C45.2289 18.8964 45.0661 18.6354 44.8168 18.483L43.8411 17.8869C43.6433 17.766 43.4916 17.5823 43.4104 17.3652L42.6703 15.3891C42.5185 14.9837 42.1311 14.7151 41.6982 14.7151C41.1574 14.7151 40.7072 15.1303 40.6636 15.6693L40.4725 18.0277C40.4651 18.1195 40.444 18.2096 40.41 18.2951L39.9351 19.4895C39.5824 20.3765 38.502 20.713 37.7079 20.1832L35.725 18.8602C35.1225 18.4581 34.8932 17.6831 35.1798 17.018L35.6593 15.9056C35.7538 15.6864 35.7967 15.4484 35.7847 15.2101C35.7427 14.3811 35.0584 13.7305 34.2283 13.7305H32.5198C31.9092 13.7305 31.3548 14.0871 31.1017 14.6429L30.9887 14.8909C30.7927 15.3211 30.412 15.6391 29.9538 15.7553Z" fill="white"/>
<path d="M51.925 32.5493L50.7501 37.4703C50.7236 37.5815 50.6768 37.6862 50.6124 37.7804L48.5469 40.7801C47.9913 41.5862 47.2738 42.2505 46.4508 42.7369C45.6278 43.2248 44.7009 43.5349 43.7265 43.634C43.4431 43.663 43.1588 43.6766 42.8761 43.6751C43.5405 43.5197 44.1743 43.2636 44.7549 42.9197C45.5771 42.4325 46.2954 41.769 46.851 40.962L48.9158 37.9632C48.9801 37.869 49.0268 37.7643 49.0535 37.6531L50.2292 32.732C50.4047 31.996 50.2679 31.2205 49.8499 30.5892L46.8954 26.1231C46.6312 25.7237 46.3276 25.3516 45.9886 25.0134L44.8387 23.8627C44.2251 23.2498 43.8458 22.4413 43.7653 21.5773L43.56 19.37C43.5325 19.0785 43.3699 18.8176 43.1211 18.6654L42.145 18.0696C41.9468 17.9488 41.7955 17.7652 41.7141 17.5478L40.974 15.5716C40.9305 15.4541 40.8669 15.3486 40.7864 15.2576C40.8411 15.157 40.9112 15.0667 40.995 14.9902C41.1802 14.8187 41.4283 14.7148 41.6979 14.7148C42.1312 14.7148 42.5186 14.9838 42.6708 15.3888L43.4108 17.365C43.4922 17.5824 43.6436 17.766 43.8417 17.8868L44.8168 18.4827C45.0665 18.6357 45.2292 18.8966 45.2558 19.1873L45.4611 21.3954C45.5416 22.2587 45.9217 23.0672 46.5345 23.6799L47.6853 24.8307C48.0235 25.1697 48.3279 25.5409 48.592 25.9412L51.5465 30.4073C51.9637 31.0378 52.1006 31.8133 51.925 32.5493Z" fill="white"/>
</svg>
