<svg width="20" height="20" viewBox="0 0 20 20" fill="none" xmlns="http://www.w3.org/2000/svg">
<path d="M12.6857 17C12.5007 17.0003 12.3202 16.9452 12.1688 16.8422C12.0173 16.7391 11.9022 16.5932 11.8392 16.4243L9.07103 9.02742L7.22679 13.8085C7.16703 13.9624 7.06388 14.0968 6.92916 14.1963C6.79444 14.2959 6.63358 14.3566 6.46502 14.3714C6.29645 14.3863 6.12697 14.3548 5.97599 14.2804C5.82501 14.2061 5.69862 14.092 5.61129 13.9511L3.64188 10.7623L2.62971 12.2364C2.49269 12.4189 2.28836 12.543 2.05942 12.5826C1.83048 12.6222 1.59464 12.5743 1.40119 12.4489C1.20774 12.3235 1.07164 12.1304 1.02134 11.9098C0.971043 11.6892 1.01043 11.4583 1.13127 11.2653L2.93228 8.64073C3.01438 8.5159 3.1288 8.41422 3.26409 8.34589C3.39938 8.27757 3.55078 8.24499 3.70312 8.25142C3.85487 8.25477 4.00328 8.29545 4.13446 8.36965C4.26565 8.44385 4.37532 8.54916 4.45324 8.67573L6.19571 11.4963L8.23986 6.19463C8.30395 6.02744 8.41912 5.88328 8.56994 5.78148C8.72075 5.67969 8.89999 5.62512 9.08363 5.6251H9.08814C9.27233 5.626 9.4518 5.68176 9.60235 5.78485C9.75291 5.88794 9.8673 6.03341 9.93011 6.20163L12.583 13.2897L15.4214 3.63567C15.5295 3.26735 15.8734 3.01015 16.2679 3.0014C16.6551 2.97865 17.018 3.23586 17.1414 3.5998L18.9424 8.84895C18.985 8.9591 19.0043 9.07648 18.9992 9.19405C18.994 9.31163 18.9645 9.42699 18.9124 9.53323C18.8603 9.63946 18.7867 9.7344 18.6959 9.81234C18.6052 9.89029 18.4992 9.94965 18.3843 9.98686C18.2693 10.0241 18.1479 10.0384 18.0271 10.0289C17.9064 10.0195 17.7889 9.98645 17.6816 9.93183C17.5743 9.87721 17.4794 9.80212 17.4027 9.71106C17.326 9.62 17.2689 9.51483 17.235 9.40186L16.3525 6.8359L13.5519 16.3631C13.4999 16.5412 13.391 16.6986 13.241 16.8127C13.091 16.9268 12.9076 16.9918 12.7172 16.9982H12.6857" fill="#CBCBD5"/>
</svg>
