<svg width="20" height="20" viewBox="0 0 20 20" fill="none" xmlns="http://www.w3.org/2000/svg">
<path d="M10 2C10.431 2 10.7804 2.35817 10.7804 2.8V4.4L10.78 4.42536L10.7792 4.44272L10.7777 4.46592C12.9934 4.84568 14.6822 6.82067 14.6822 9.2C14.6822 11.6747 15.1699 12.6496 15.9297 14.1682L15.9567 14.2225C16.0891 14.4871 15.9017 14.8 15.6115 14.8H4.38849C4.09833 14.8 3.91086 14.4871 4.04327 14.2225L4.07032 14.1682C4.83011 12.6496 5.31783 11.6747 5.31783 9.2C5.31783 6.82067 7.00658 4.84568 9.22231 4.46592L9.22059 4.43427C9.22002 4.4229 9.21964 4.41148 9.21964 4.4V2.8C9.21964 2.35817 9.56905 2 10 2Z" fill="#CBCBD5"/>
<path d="M11.5607 16.4C11.5607 17.2837 10.8619 18 10 18C9.1381 18 8.43928 17.2837 8.43928 16.4H11.5607Z" fill="#CBCBD5"/>
</svg>
