<svg width="20" height="20" viewBox="0 0 20 20" fill="none" xmlns="http://www.w3.org/2000/svg">
<path fill-rule="evenodd" clip-rule="evenodd" d="M9 17H4.5C3.67157 17 3 16.3284 3 15.5V11H9V17ZM17 11V15.5C17 16.3284 16.3284 17 15.5 17H11V11H17ZM9 9H3L3 4.5C3.00001 3.67157 3.67158 3 4.5 3H9V9ZM19 2V7C19 7.55 18.55 8 18 8C17.45 8 17 7.55 17 7V4.42L12.71 8.71C12.51 8.9 12.26 9 12 9C11.74 9 11.49 8.9 11.29 8.71C10.9 8.32 10.9 7.68 11.29 7.29L15.58 3H13C12.45 3 12 2.55 12 2C12 1.45 12.45 1 13 1H18C18.08 1 18.17 1.01 18.25 1.04C18.3 1.04 18.34 1.06 18.39 1.08C18.51 1.13 18.62 1.2 18.71 1.29C18.8 1.38 18.87 1.49 18.92 1.61C18.94 1.66 18.96 1.7 18.96 1.75C18.99 1.83 19 1.92 19 2Z" fill="#3D3D48"/>
</svg>
