<svg width="20" height="20" viewBox="0 0 20 20" fill="none" xmlns="http://www.w3.org/2000/svg">
<g clip-path="url(#clip0_229_7977)">
<path fill-rule="evenodd" clip-rule="evenodd" d="M15.284 14.546C15.771 14.204 16.361 14 17 14C18.654 14 20 15.346 20 17C20 18.654 18.654 20 17 20C15.346 20 14 18.654 14 17C14.0038 16.7213 14.0472 16.4445 14.129 16.178L12.554 15.053C11.859 15.635 10.976 16 10 16C9.06353 15.9959 8.15874 15.6604 7.446 15.053L5.871 16.178C5.947 16.44 6 16.713 6 17C6 18.654 4.654 20 3 20C1.346 20 0 18.654 0 17C0 15.346 1.346 14 3 14C3.61467 14.0004 4.21414 14.1911 4.716 14.546L6.276 13.432C6.104 12.985 6 12.506 6 12C6 10.142 7.28 8.589 9 8.142V5.815C7.838 5.401 7 4.302 7 3C7 1.346 8.346 0 10 0C11.654 0 13 1.346 13 3C12.998 3.6184 12.8047 4.22104 12.4466 4.72522C12.0886 5.2294 11.5832 5.61042 11 5.816V8.142C12.72 8.589 14 10.142 14 12C13.9972 12.4903 13.9036 12.9758 13.724 13.432L15.284 14.546ZM16.3213 17.6918C16.4994 17.8781 16.7425 17.9885 17 18C17.2575 17.9885 17.5006 17.8781 17.6787 17.6918C17.8569 17.5055 17.9563 17.2577 17.9563 17C17.9563 16.7423 17.8569 16.4945 17.6787 16.3082C17.5006 16.1219 17.2575 16.0115 17 16C16.7425 16.0115 16.4994 16.1219 16.3213 16.3082C16.1431 16.4945 16.0437 16.7423 16.0437 17C16.0437 17.2577 16.1431 17.5055 16.3213 17.6918ZM2.32128 17.6918C2.49941 17.8781 2.74252 17.9885 3 18C3.25748 17.9885 3.50059 17.8781 3.67872 17.6918C3.85685 17.5055 3.95627 17.2577 3.95627 17C3.95627 16.7423 3.85685 16.4945 3.67872 16.3082C3.50059 16.1219 3.25748 16.0115 3 16C2.74252 16.0115 2.49941 16.1219 2.32128 16.3082C2.14315 16.4945 2.04373 16.7423 2.04373 17C2.04373 17.2577 2.14315 17.5055 2.32128 17.6918ZM11 3C11 2.449 10.551 2 10 2C9.449 2 9 2.449 9 3C9 3.551 9.449 4 10 4C10.551 4 11 3.551 11 3Z" fill="#CBCBD5"/>
</g>
<defs>
<clipPath id="clip0_229_7977">
<rect width="20" height="20" fill="white"/>
</clipPath>
</defs>
</svg>
