<svg width="20" height="20" viewBox="0 0 20 20" fill="none" xmlns="http://www.w3.org/2000/svg">
<path d="M15.5 3C14.6716 3 14 3.67157 14 4.5V16.5C14 17.3284 14.6716 18 15.5 18H16.5C17.3284 18 18 17.3284 18 16.5V4.5C18 3.67157 17.3284 3 16.5 3H15.5Z" fill="#3D3D48"/>
<path d="M8 8.5C8 7.67157 8.67157 7 9.5 7H10.5C11.3284 7 12 7.67157 12 8.5V16.5C12 17.3284 11.3284 18 10.5 18H9.5C8.67157 18 8 17.3284 8 16.5V8.5Z" fill="#3D3D48"/>
<path d="M2 12.5C2 11.6716 2.67157 11 3.5 11H4.5C5.32843 11 6 11.6716 6 12.5V16.5C6 17.3284 5.32843 18 4.5 18H3.5C2.67157 18 2 17.3284 2 16.5V12.5Z" fill="#3D3D48"/>
</svg>
