<svg width="20" height="20" viewBox="0 0 20 20" fill="none" xmlns="http://www.w3.org/2000/svg">
<path fill-rule="evenodd" clip-rule="evenodd" d="M5 5C5 5.35064 5.06015 5.68722 5.17071 6H4.5C3.67157 6 3 6.67157 3 7.5V9L17 9V7.5C17 6.72535 16.4128 6.08785 15.6592 6.00835C15.8777 5.5516 16 5.04009 16 4.5C16 2.567 14.433 1 12.5 1C11.3169 1 10.2708 1.58706 9.63731 2.48578C9.16651 2.17856 8.60411 2 8 2C6.34315 2 5 3.34315 5 5ZM12.5 6C13.3284 6 14 5.32843 14 4.5C14 3.67157 13.3284 3 12.5 3C11.6716 3 11 3.67157 11 4.5V6H12.5ZM9 5V6H8C7.44771 6 7 5.55228 7 5C7 4.44772 7.44771 4 8 4C8.55228 4 9 4.44772 9 5Z" fill="#3D3D48"/>
<path d="M4 11H9V17H5.5C4.67157 17 4 16.3284 4 15.5V11Z" fill="#3D3D48"/>
<path d="M16 11H11V17H14.5C15.3284 17 16 16.3284 16 15.5V11Z" fill="#3D3D48"/>
</svg>
