<svg width="20" height="20" viewBox="0 0 20 20" fill="none" xmlns="http://www.w3.org/2000/svg">
<path d="M11.1493 8.48267L12.2987 7.33333H3.77778V17.1111C3.77778 17.3469 3.68413 17.573 3.51743 17.7397C3.35073 17.9064 3.12464 18 2.88889 18C2.65314 18 2.42705 17.9064 2.26035 17.7397C2.09365 17.573 2 17.3469 2 17.1111V2.88889C2 2.65314 2.09365 2.42705 2.26035 2.26035C2.42705 2.09365 2.65314 2 2.88889 2C3.12464 2 3.35073 2.09365 3.51743 2.26035C3.68413 2.42705 3.77778 2.65314 3.77778 2.88889V5.55556H12.2987L11.1493 4.40622C10.9827 4.23955 10.889 4.01349 10.889 3.77778C10.889 3.66106 10.912 3.54549 10.9567 3.43767C11.0013 3.32984 11.0668 3.23186 11.1493 3.14933C11.2319 3.0668 11.3298 3.00134 11.4377 2.95668C11.5455 2.91201 11.6611 2.88902 11.7778 2.88902C12.0135 2.88902 12.2395 2.98266 12.4062 3.14933L15.072 5.81511C15.1548 5.89768 15.2205 5.99577 15.2653 6.10376C15.3101 6.21175 15.3331 6.32752 15.3331 6.44444C15.3331 6.56136 15.3101 6.67713 15.2653 6.78513C15.2205 6.89312 15.1548 6.99121 15.072 7.07378L12.4062 9.73956C12.3239 9.82239 12.2259 9.88812 12.1181 9.93297C12.0102 9.97783 11.8946 10.0009 11.7778 10.0009C11.661 10.0009 11.5453 9.97783 11.4375 9.93297C11.3296 9.88812 11.2317 9.82239 11.1493 9.73956C11.0667 9.65708 11.0012 9.55912 10.9564 9.45128C10.9117 9.34345 10.8887 9.22785 10.8887 9.11111C10.8887 8.99437 10.9117 8.87878 10.9564 8.77094C11.0012 8.6631 11.0667 8.56515 11.1493 8.48267Z" fill="#3D3D48"/>
<path d="M17.1111 2C17.3469 2 17.573 2.09365 17.7397 2.26035C17.9064 2.42705 18 2.65314 18 2.88889V17.1111C18 17.3469 17.9064 17.573 17.7397 17.7397C17.573 17.9064 17.3469 18 17.1111 18C16.8754 18 16.6493 17.9064 16.4826 17.7397C16.3159 17.573 16.2222 17.3469 16.2222 17.1111V14.4444H7.70133L8.85067 15.5938C8.9332 15.6763 8.99866 15.7743 9.04332 15.8821C9.08799 15.9899 9.11098 16.1055 9.11098 16.2222C9.11098 16.3389 9.08799 16.4545 9.04332 16.5623C8.99866 16.6702 8.9332 16.7681 8.85067 16.8507C8.76814 16.9332 8.67016 16.9987 8.56233 17.0433C8.4545 17.088 8.33893 17.111 8.22222 17.111C8.10551 17.111 7.98994 17.088 7.88211 17.0433C7.77428 16.9987 7.67631 16.9332 7.59378 16.8507L4.928 14.1849C4.84522 14.1023 4.77954 14.0042 4.73473 13.8962C4.68992 13.7882 4.66686 13.6725 4.66686 13.5556C4.66686 13.4386 4.68992 13.3229 4.73473 13.2149C4.77954 13.1069 4.84522 13.0088 4.928 12.9262L7.59378 10.2604C7.67631 10.1779 7.77428 10.1125 7.88211 10.0678C7.98994 10.0231 8.10551 10.0001 8.22222 10.0001C8.33893 10.0001 8.4545 10.0231 8.56233 10.0678C8.67016 10.1125 8.76814 10.1779 8.85067 10.2604C8.9332 10.343 8.99866 10.4409 9.04332 10.5488C9.08799 10.6566 9.11098 10.7722 9.11098 10.8889C9.11098 11.0056 9.08799 11.1212 9.04332 11.229C8.99866 11.3368 8.9332 11.4348 8.85067 11.5173L7.70133 12.6667H16.2222V2.88889C16.2222 2.65314 16.3159 2.42705 16.4826 2.26035C16.6493 2.09365 16.8754 2 17.1111 2Z" fill="#3D3D48"/>
</svg>
