<svg width="21" height="20" viewBox="0 0 21 20" fill="none" xmlns="http://www.w3.org/2000/svg">
<path fill-rule="evenodd" clip-rule="evenodd" d="M10.5 2C6.089 2 2.5 5.589 2.5 10C2.5 14.411 6.089 18 10.5 18C14.911 18 18.5 14.411 18.5 10C18.5 5.589 14.911 2 10.5 2ZM10.5 16C7.191 16 4.5 13.309 4.5 10C4.5 6.691 7.191 4 10.5 4C13.809 4 16.5 6.691 16.5 10C16.5 13.309 13.809 16 10.5 16ZM13.5 9H11.5V7C11.5 6.448 11.053 6 10.5 6C9.947 6 9.5 6.448 9.5 7V9H7.5C6.947 9 6.5 9.448 6.5 10C6.5 10.552 6.947 11 7.5 11H9.5V13C9.5 13.552 9.947 14 10.5 14C11.053 14 11.5 13.552 11.5 13V11H13.5C14.053 11 14.5 10.552 14.5 10C14.5 9.448 14.053 9 13.5 9Z" fill="white"/>
</svg>
