<svg width="20" height="20" viewBox="0 0 20 20" fill="none" xmlns="http://www.w3.org/2000/svg">
<path d="M10.4941 16.4L13.1996 10.9888L15.9051 16.4H10.4941ZM5.19989 14.8V9.9192C5.84746 10.05 6.51734 10.0186 7.14982 9.82774C7.78231 9.63688 8.35775 9.29249 8.82486 8.82528C9.29197 8.35808 9.63625 7.78256 9.827 7.15002C10.0177 6.51748 10.0491 5.84757 9.91812 5.2H14.7995V10.6112L13.9148 8.8424C13.6436 8.3 12.7556 8.3 12.4836 8.8424L9.50533 14.8H5.19989ZM17.9146 16.8424L16.3995 13.8112C16.3995 10.8075 16.3995 7.80373 16.3995 4.8C16.3995 4.13726 15.8623 3.6 15.1995 3.6C13.1927 3.6 11.1858 3.6 9.17895 3.6C8.44777 2.6344 7.30141 2 5.99986 2C3.79434 2 2 3.7944 2 6C2 7.3016 2.63438 8.4488 3.59994 9.18C3.59994 11.1867 3.59994 13.1933 3.59994 15.2C3.59994 15.8627 4.13718 16.4 4.7999 16.4C6.10172 16.4 7.40354 16.4 8.70536 16.4L8.48377 16.8424C8.42257 16.9644 8.39363 17.1 8.39969 17.2363C8.40576 17.3726 8.44663 17.5051 8.51841 17.6212C8.59019 17.7373 8.69049 17.833 8.80976 17.8993C8.92903 17.9656 9.06329 18.0003 9.19975 18H17.1995C17.3359 18.0004 17.4702 17.9657 17.5895 17.8994C17.7088 17.8331 17.8091 17.7374 17.8808 17.6212C17.9526 17.5051 17.9933 17.3726 17.9992 17.2362C18.0052 17.0999 17.976 16.9643 17.9146 16.8424Z" fill="#3D3D48"/>
</svg>
