<svg width="64" height="64" viewBox="0 0 64 64" fill="none" xmlns="http://www.w3.org/2000/svg">
<rect width="64" height="64" rx="8" fill="#7C7D89"/>
<path d="M42.6276 20.209C42.6276 19.902 42.6794 19.6009 42.376 19.5426L41.0305 19.2838C40.6937 19.219 39.6884 20.0345 39.3588 19.8285L38.5799 19.3418C38.2015 19.1052 36.344 20.2305 36.0096 19.8688L35.1013 18.8865C34.5874 18.3307 36.2909 18.0832 36.2909 17.5868C36.2909 15.5077 36.4059 16.4673 35.5488 15.3602C34.3669 13.8337 34.428 13.8641 34.2655 13.8366C34.1091 13.8102 30.4323 13.1951 30.2774 13.124C29.251 12.6518 28.8076 12.3305 28.1401 12.6549L26.6023 13.4024C25.7124 13.8351 23.8115 13.0676 23.0427 13.9912C21.3166 16.0652 21.1412 15.9024 21.288 16.2146C21.8424 17.3926 22.043 17.6263 21.7318 17.813C18.9312 19.4935 19.0546 19.383 19.0046 19.5393C18.2609 21.8637 18.2184 21.8265 18.3759 22.0037L18.8871 22.5788C19.2537 22.9913 18.0915 23.7595 18.3626 24.1855C19.6376 26.189 19.623 26.1226 19.6324 26.2498C19.7377 27.6721 19.7026 27.7077 19.8588 27.8213L20.958 28.621C21.2732 28.8502 24.3669 29.5768 24.3669 30.1923V34.233C24.3669 34.486 23.7684 35.1982 23.8157 35.4662C24.068 36.8959 24.1816 37.729 24.181 37.7252C24.1923 37.8001 24.0726 38.5762 24.0819 38.511C24.0244 38.913 24.8394 39.101 24.8394 39.4793C24.8394 41.5907 24.8715 41.5665 24.7874 41.6927C24.1659 42.6249 24.2516 41.8526 24.7091 45.5893C25.0394 48.6287 24.9737 48.5596 25.1988 48.6588C27.7038 49.7638 27.6644 49.702 27.7438 49.8582C28.3715 51.0948 28.4427 51.4535 28.9373 51.4535C30.7501 51.4535 31.6079 51.6371 31.6079 50.8285V49.7663C31.6079 49.1455 30.378 48.6004 30.378 48.193C30.378 43.6332 30.3359 43.8184 30.4444 43.6804L31.5335 42.2955C31.7554 42.0134 32.7177 42.2227 32.8474 41.8266L33.2951 40.4598C33.4755 39.9088 35.2154 40.5912 35.3443 39.9566L35.6366 38.5166C35.6684 38.3604 35.1137 37.1563 35.1694 37.2866C35.0787 37.0748 35.2426 36.8413 35.4727 36.8548L36.486 36.9143C36.791 36.9323 37.4401 35.9473 37.7327 35.7321L39.1071 34.7223C39.5819 34.3734 38.4429 33.3384 38.8437 32.9634L39.8669 32.0057C40.064 31.8213 42.2271 31.9916 42.4555 31.8995C43.4685 31.4915 43.5634 31.4987 43.6041 31.2827C44.5613 26.2057 44.5082 26.2338 44.5082 26.2338C44.5235 26.132 44.156 24.7615 44.179 24.8515C44.0288 24.2662 45.6904 24.1635 45.6904 23.6338C45.6904 21.531 45.7654 21.4048 45.4716 21.3141C42.7069 20.4624 42.6276 20.5221 42.6276 20.209Z" fill="white"/>
<path d="M30.3553 51.7846C30.1801 51.7846 29.9887 51.781 29.7792 51.7769C29.526 51.7721 29.2454 51.7668 28.9368 51.7668C28.3337 51.7668 28.1493 51.3903 27.7456 50.5658C27.6659 50.403 27.5746 50.2169 27.467 50.0046C27.3834 49.9541 27.0929 49.8278 26.5956 49.6118C26.2378 49.4563 25.7473 49.2432 25.0723 48.9455C24.7298 48.795 24.7265 48.7649 24.5629 47.183C24.5218 46.7849 24.4692 46.276 24.3982 45.6238C24.306 44.8717 24.2303 44.3119 24.1693 43.8622C23.9693 42.3844 23.9573 42.296 24.3276 41.7997C24.3826 41.7261 24.4481 41.6383 24.5253 41.5228C24.5348 41.4464 24.5334 41.1913 24.5309 40.786C24.5292 40.4803 24.5268 40.061 24.5268 39.48C24.5089 39.4438 24.3643 39.3377 24.2779 39.2744C24.041 39.1007 23.717 38.8628 23.7723 38.4694C23.7725 38.4689 23.7725 38.4683 23.7726 38.4677C23.7734 38.4625 23.7742 38.4574 23.7753 38.4522C23.7929 38.3408 23.8628 37.8628 23.8689 37.7502C23.8517 37.6264 23.7378 36.8241 23.5079 35.5214C23.4623 35.2627 23.6368 34.9685 23.839 34.6277C23.9179 34.4949 24.0359 34.296 24.0545 34.2221V30.2213C23.8681 29.9364 22.4157 29.4643 21.7901 29.261C21.1975 29.0683 20.9068 28.9713 20.7742 28.8749L19.675 28.075C19.4321 27.8985 19.424 27.7755 19.3701 26.9763C19.3578 26.7914 19.3423 26.5625 19.3212 26.2777C19.2875 26.2107 19.1512 25.9983 18.8968 25.6019C18.7129 25.3155 18.4567 24.9163 18.099 24.3542C17.8551 23.9711 18.1484 23.5589 18.3842 23.2278C18.4739 23.1016 18.6381 22.8711 18.6467 22.7796L18.1423 22.2122C17.8976 21.9371 17.9225 21.8607 18.3382 20.5853C18.4353 20.2875 18.5568 19.9146 18.707 19.4452C18.7754 19.2153 18.7754 19.2153 20.0868 18.4335C20.4545 18.2144 20.9339 17.9286 21.5603 17.5528C21.5314 17.4369 21.4032 17.1733 21.2685 16.8963C21.1928 16.7403 21.1046 16.5596 21.0054 16.3488C20.8301 15.9764 20.9848 15.8138 21.3584 15.4208C21.6256 15.1399 22.0728 14.6694 22.8028 13.7927C23.3537 13.1308 24.3071 13.1768 25.1487 13.2172C25.6512 13.2414 26.1701 13.2664 26.466 13.1227L28.004 12.3752C28.7101 12.0318 29.2232 12.2774 30 12.6488C30.1214 12.7069 30.2518 12.7693 30.3937 12.8346C30.5551 12.8793 31.6481 13.0811 34.2575 13.5196L34.3181 13.5297C34.5671 13.5714 34.579 13.5869 35.2028 14.3996C35.3549 14.5977 35.5482 14.8494 35.7964 15.1702C36.0284 15.4699 36.1768 15.6 36.285 15.695C36.6151 15.9849 36.6142 16.0944 36.6071 16.9463C36.6057 17.1199 36.6039 17.3305 36.6039 17.5878C36.6039 17.9944 36.1885 18.2107 35.7868 18.4197C35.6478 18.4921 35.4282 18.6063 35.341 18.686L36.2142 19.6303C36.3926 19.6514 36.9404 19.4461 37.2734 19.3214C38.0168 19.0427 38.4521 18.8941 38.7457 19.0777L39.5029 19.5507C39.6278 19.5488 39.974 19.371 40.1631 19.2739C40.5384 19.081 40.8353 18.9289 41.0899 18.9778L42.4354 19.2366C42.9589 19.3372 42.9479 19.8324 42.9421 20.0985C42.9414 20.1305 42.9406 20.1628 42.9404 20.1953C43.0839 20.2678 43.5204 20.3988 44.1476 20.5871C44.5165 20.6978 44.9804 20.8371 45.5637 21.0168C46.0212 21.1575 46.0189 21.4053 46.0085 22.596C46.006 22.8735 46.0031 23.2146 46.0031 23.6349C46.0031 24.0953 45.5009 24.3033 45.0579 24.4869C44.8785 24.5613 44.5504 24.6972 44.4848 24.7877C44.4859 24.7928 44.4868 24.798 44.4876 24.8033C44.5237 24.9191 44.5714 25.1075 44.6523 25.4286C44.7532 25.8286 44.7964 26.0247 44.8129 26.1322C44.8162 26.1469 44.8182 26.1632 44.8193 26.1816C44.8245 26.2318 44.8214 26.2549 44.8176 26.2796C44.8081 26.4097 44.7735 26.6128 44.7159 26.9517C44.5721 27.796 44.3015 29.2728 43.9117 31.3417C43.8462 31.6882 43.6589 31.7618 43.0376 32.0058C42.9096 32.0563 42.7562 32.1164 42.5726 32.1903C42.4307 32.2477 42.179 32.2485 41.4389 32.236C40.9892 32.2285 40.2489 32.2161 40.0476 32.2658L39.0687 33.1819C39.0642 33.2782 39.197 33.5425 39.2698 33.6872C39.4718 34.0893 39.7484 34.6399 39.2926 34.9749L37.9182 35.9847C37.8393 36.0425 37.6782 36.2324 37.536 36.3997C37.0881 36.9271 36.7904 37.2453 36.4681 37.2269L35.4612 37.1677C35.5099 37.2628 35.5798 37.4263 35.7029 37.7227C35.9612 38.3443 35.9656 38.4697 35.9432 38.5793L35.6509 40.0194C35.531 40.61 34.8356 40.5767 34.2764 40.5499C34.0551 40.5392 33.6903 40.5217 33.5862 40.5767L33.1448 41.9244C33.0109 42.3333 32.5478 42.3836 32.1757 42.4241C32.0471 42.438 31.8339 42.4613 31.7726 42.498L30.695 43.8683C30.6803 43.9953 30.682 44.4442 30.6853 45.3485C30.6878 45.9913 30.691 46.8968 30.691 48.178C30.7293 48.2643 30.9514 48.4535 31.0996 48.5799C31.4846 48.9078 31.9209 49.2797 31.9209 49.7669V50.8289C31.9209 51.1021 31.8403 51.3194 31.6814 51.4753C31.4157 51.7357 30.9956 51.7846 30.3553 51.7846ZM25.3364 48.3788C26.0085 48.6752 26.4914 48.885 26.8446 49.0386C27.9134 49.5028 27.9134 49.5028 28.0212 49.7155C28.1323 49.9346 28.2256 50.1249 28.3068 50.291C28.7004 51.0944 28.7476 51.1418 28.9368 51.1418C29.2496 51.1418 29.5342 51.1472 29.7912 51.1521C30.4895 51.1655 31.0926 51.1769 31.2429 51.0296C31.2557 51.0169 31.2951 50.9783 31.2951 50.8293V49.7672C31.2951 49.5686 30.9473 49.2722 30.6935 49.056C30.3564 48.7686 30.0653 48.5205 30.0653 48.1939C30.0653 46.9055 30.062 45.9961 30.0595 45.3513C30.0532 43.6677 30.0532 43.6677 30.1923 43.4958L31.2876 42.1033C31.4689 41.8727 31.7935 41.8374 32.1075 41.8033C32.2415 41.7888 32.4867 41.7621 32.555 41.7157L32.9979 40.3635C33.1592 39.871 33.7687 39.9005 34.3057 39.9261C34.5346 39.9371 34.9606 39.9575 35.0456 39.8838L35.322 38.4963C35.2801 38.3089 34.9914 37.6399 34.8993 37.4455C34.8939 37.4358 34.8887 37.426 34.8839 37.4155C34.8832 37.4139 34.8825 37.4122 34.8817 37.4107C34.796 37.2108 34.8198 36.9853 34.9446 36.8074C35.0696 36.6296 35.2739 36.5311 35.4907 36.5438L36.4715 36.6014C36.6009 36.5344 36.897 36.186 37.0589 35.9953C37.2471 35.7738 37.4096 35.5824 37.5475 35.4813L38.9129 34.4778C38.9178 34.3803 38.7839 34.1141 38.7106 33.9682C38.5115 33.5719 38.2637 33.0789 38.6296 32.7363L39.6529 31.7786C39.8342 31.6089 40.1978 31.5903 41.4485 31.6113C41.7832 31.6171 42.239 31.6246 42.3529 31.6049C42.532 31.5328 42.682 31.4739 42.8081 31.4242C43.0399 31.3332 43.2285 31.2589 43.2979 31.2183C44.094 26.9953 44.1851 26.3375 44.195 26.2372C44.195 26.2355 44.195 26.2338 44.195 26.2321C44.1739 26.065 43.9329 25.1371 43.8803 24.9471C43.8785 24.9416 43.877 24.936 43.8756 24.9305C43.8756 24.9305 43.8756 24.9305 43.8756 24.9303C43.8754 24.9297 43.8753 24.9289 43.8751 24.9282C43.731 24.3599 44.3592 24.0997 44.8178 23.9096C44.9924 23.8372 45.3131 23.7044 45.3771 23.6178C45.3773 23.2032 45.3803 22.8658 45.3826 22.5905C45.3868 22.1066 45.3901 21.7427 45.3664 21.6102C44.7907 21.4328 44.3325 21.2952 43.9673 21.1857C42.4712 20.7366 42.3148 20.6897 42.3148 20.21C42.3148 20.168 42.3157 20.1261 42.3167 20.0849C42.3182 20.0102 42.3206 19.903 42.3104 19.8502L40.9834 19.5941C40.8893 19.6032 40.6245 19.7393 40.4481 19.8299C39.9746 20.0733 39.527 20.3033 39.1929 20.0944L38.4364 19.6216C38.282 19.6111 37.7901 19.795 37.4923 19.9066C36.7145 20.1982 36.1 20.428 35.78 20.0819L34.8717 19.0996C34.6909 18.9041 34.6784 18.7168 34.6996 18.5941C34.7598 18.2493 35.1346 18.0541 35.4973 17.8652C35.6565 17.7824 35.9182 17.6461 35.9779 17.5646C35.9781 17.3157 35.9798 17.1107 35.9812 16.9408C35.9843 16.5832 35.9867 16.3007 35.9607 16.2485C35.9529 16.2357 35.9079 16.1963 35.8718 16.1644C35.7517 16.0589 35.5701 15.8997 35.3015 15.5524C35.0525 15.231 34.8587 14.9785 34.7062 14.7799C34.4421 14.4358 34.2723 14.2144 34.2048 14.1444L34.1531 14.1357C30.3303 13.4933 30.2062 13.4363 30.1465 13.4089C29.9959 13.3397 29.8578 13.2736 29.7296 13.2124C28.9564 12.8427 28.692 12.7352 28.2764 12.9371L26.7384 13.6846C26.2989 13.8983 25.7253 13.8705 25.1179 13.8411C24.3887 13.8061 23.6342 13.7697 23.2825 14.1922C22.5393 15.0849 22.0832 15.5646 21.8107 15.8513C21.7171 15.9496 21.6276 16.0438 21.5793 16.1016C21.6737 16.3016 21.7575 16.4738 21.83 16.6227C22.1934 17.3696 22.3935 17.781 21.8923 18.0819C21.2598 18.4614 20.7764 18.7496 20.4064 18.9702C19.7573 19.3572 19.4017 19.5691 19.2982 19.6464C19.1492 20.1121 19.0282 20.4827 18.9317 20.7791C18.7537 21.325 18.639 21.6769 18.6171 21.8066L19.1201 22.3724C19.4751 22.7717 19.1384 23.2449 18.8926 23.5903C18.8043 23.7144 18.6425 23.9418 18.6334 24.0311C18.9864 24.5857 19.24 24.9807 19.4221 25.2646C19.931 26.0575 19.931 26.0575 19.9434 26.2249C19.965 26.5163 19.9804 26.7478 19.9931 26.9346C20.0145 27.2522 20.0304 27.49 20.0485 27.5746L21.1412 28.3696C21.2209 28.4189 21.6432 28.5563 21.9828 28.6666C23.8471 29.2727 24.6789 29.6371 24.6789 30.1935V34.2341C24.6789 34.4264 24.5639 34.6303 24.376 34.9468C24.2884 35.0941 24.144 35.3377 24.126 35.4313C24.3723 36.8272 24.4748 37.4099 24.4845 37.6805L24.4893 37.6799C24.4967 37.7282 24.5029 37.7697 24.4445 38.191C24.4221 38.3507 24.4071 38.4602 24.3928 38.5377C24.3923 38.5439 24.3915 38.5502 24.3906 38.5564L24.3892 38.5563L24.3906 38.5564C24.4082 38.5955 24.5576 38.7052 24.6471 38.7707C24.8718 38.9355 25.1514 39.1407 25.1514 39.4803C25.1514 40.0597 25.1539 40.478 25.1554 40.7825C25.1606 41.6616 25.1607 41.696 25.0467 41.8671C24.9614 41.995 24.8887 42.0924 24.8282 42.1736C24.6106 42.4652 24.6106 42.4652 24.7884 43.7785C24.8464 44.2061 24.9257 44.7919 25.0189 45.5521C25.0904 46.2099 25.1431 46.72 25.1845 47.1189C25.2548 47.7968 25.3 48.2335 25.3364 48.3788ZM35.3301 38.4553C35.33 38.456 35.3298 38.4568 35.3296 38.4574L35.3301 38.4553ZM23.8703 37.7602C23.8707 37.765 23.8715 37.7693 23.872 37.7725C23.8717 37.7705 23.8714 37.7685 23.871 37.7663C23.8709 37.7655 23.8706 37.7635 23.8703 37.7602ZM42.3409 31.6097C42.3401 31.61 42.3393 31.6103 42.3385 31.6107C42.3393 31.6105 42.3401 31.6102 42.3409 31.6097ZM44.1987 26.1886C44.1985 26.1888 44.1985 26.1889 44.1985 26.1892C44.1985 26.1891 44.1985 26.1889 44.1987 26.1886ZM44.4812 24.7744V24.7746V24.7744ZM45.405 21.623H45.4065H45.405ZM42.9409 20.2438H42.9424H42.9409ZM30.4051 12.8397C30.4057 12.8399 30.4065 12.8402 30.4071 12.8405C30.4065 12.8403 30.4059 12.84 30.4051 12.8397Z" fill="white"/>
</svg>
