<svg width="54" height="32" viewBox="0 0 54 32" fill="none" xmlns="http://www.w3.org/2000/svg">
<g clip-path="url(#clip0)">
<path d="M27.0491 -0.000684353C27.0245 -0.000684353 27.0123 -0.000684353 27 -0.000684353C26.9877 -0.000684353 26.9631 -0.000684353 26.9508 -0.000684353C26.3244 -0.01351 25.7593 0.396911 25.5873 1.02537C25.3662 1.80773 25.7716 2.53879 26.3981 2.80813C26.5332 2.87226 26.6069 3.02617 26.5455 3.18008L24.5432 13.3123L20.6861 6.88669C20.5878 6.77126 20.6001 6.57887 20.7229 6.48909C20.8703 6.37366 20.9931 6.21976 21.0914 6.0402C21.4599 5.33479 21.2143 4.44982 20.5386 4.05222C19.863 3.66745 19.0154 3.92396 18.6346 4.62938C18.2661 5.33479 18.5118 6.21976 19.1874 6.61735C19.3594 6.71996 19.5314 6.77126 19.7156 6.78409C19.863 6.79691 19.9736 6.93799 19.949 7.0919L20.035 14.3127L16.0305 10.6446C15.9199 10.5548 15.8953 10.3753 15.9813 10.2598C16.141 10.0161 16.2393 9.72116 16.2393 9.41334C16.2393 8.57968 15.5637 7.89992 14.7529 7.95122C14.0527 8.00252 13.4877 8.5925 13.4508 9.31074C13.4017 10.1572 14.0405 10.8626 14.8512 10.8626C14.9863 10.8626 15.1214 10.837 15.2443 10.7985C15.3794 10.76 15.5268 10.837 15.576 10.9781C16.0427 12.5428 16.5218 14.1075 16.9886 15.6723L17.9959 19.0198C18.0573 19.2378 18.0696 19.2763 18.131 19.4943C17.9467 19.6097 17.7871 19.8149 17.7993 20.033C17.8362 20.4819 18.4135 20.7769 18.9295 20.9564C19.5928 21.1745 20.293 21.2642 20.9194 21.3284C20.9809 21.3284 20.9931 21.2386 20.9317 21.2258C19.9122 20.9051 19.0523 20.4819 19.0523 20.1612C19.0523 19.4174 22.5532 18.5837 26.8771 18.5837C26.914 18.5837 26.9508 18.5837 26.9754 18.5837C27.0123 18.5837 27.0491 18.5837 27.0737 18.5837C31.3976 18.5837 34.8985 19.4174 34.8985 20.1612C34.8985 20.4819 34.0386 20.9051 33.0191 21.2258C32.9577 21.2386 32.9699 21.3412 33.0314 21.3284C33.6578 21.2771 34.358 21.1873 35.0214 20.9564C35.5373 20.7769 36.1146 20.4819 36.1515 20.033C36.176 19.8021 36.0041 19.6097 35.8198 19.4943C35.8812 19.2763 35.8935 19.2378 35.9549 19.0198L36.9622 15.6723C37.429 14.1075 37.9081 12.5428 38.3749 10.9781C38.424 10.837 38.5714 10.76 38.7065 10.7985C38.8294 10.837 38.9645 10.8626 39.0996 10.8626C39.8981 10.8626 40.5491 10.1572 40.5 9.31074C40.4508 8.57968 39.8858 7.9897 39.1979 7.95122C38.3871 7.89992 37.7115 8.56685 37.7115 9.41334C37.7115 9.73399 37.8098 10.029 37.9695 10.2598C38.0555 10.3881 38.0309 10.5548 37.9204 10.6446L33.9158 14.3127L34.0018 7.0919C33.9895 6.93799 34.0878 6.79691 34.2352 6.78409C34.4194 6.75843 34.5914 6.70713 34.7634 6.61735C35.439 6.23258 35.6847 5.33479 35.3162 4.62938C34.9477 3.92396 34.0878 3.66745 33.4122 4.05222C32.7366 4.43699 32.4909 5.33479 32.8594 6.0402C32.9577 6.21976 33.0805 6.37366 33.2279 6.48909C33.3507 6.57887 33.363 6.77126 33.2648 6.88669L29.4076 13.3123L27.4053 3.18008C27.3439 3.03899 27.4176 2.87226 27.5527 2.80813C28.1792 2.53879 28.5846 1.80773 28.3635 1.02537C28.1915 0.409736 27.6387 -0.000684353 27.0245 -0.000684353C27.0614 -0.000684353 27.0614 -0.000684353 27.0491 -0.000684353Z" fill="url(#paint0_linear)"/>
<path d="M12.8121 31.4341C12.7753 31.3315 12.6524 31.293 12.5787 31.3058C12.4682 31.3187 12.2594 31.3443 12.1857 31.3187C12.0997 31.293 11.94 31.1776 11.8786 31.075L11.8663 31.0621C11.8294 31.0108 11.7803 31.0108 11.7557 31.0108C11.7434 31.0108 11.7312 31.0108 11.7189 31.0237L11.7066 31.0108C11.682 30.9852 11.6575 30.9467 11.5592 30.5748C11.4486 30.1515 11.3749 29.8565 11.3381 29.677C11.3135 29.4974 11.2644 29.2409 11.3012 28.8818C11.3012 28.7535 11.2644 28.6509 11.1907 28.5868C11.1415 28.5483 11.117 28.4842 11.0678 28.4072C11.0555 28.3816 11.0433 28.3688 11.031 28.3431C10.9696 28.2277 10.4905 27.4838 10.1465 27.1632C10.1465 27.1632 10.1465 27.1632 10.1465 27.1503C10.1711 27.099 10.208 26.9708 10.2202 26.8682C10.2939 26.7656 10.3676 26.5604 10.3922 26.4449C10.4045 26.3808 10.4782 26.1884 10.5151 26.0602C10.5888 26.2269 10.7239 26.2654 10.8344 26.2654C11.0187 26.2654 11.6943 26.1115 11.7434 26.0602C11.7434 26.0602 11.7434 26.0602 11.7557 26.0473C11.7557 26.0473 11.7557 26.0473 11.768 26.0473C11.8294 26.0473 12.0014 26.0345 12.0628 26.0217C12.1734 25.996 12.2348 25.9319 12.2471 25.8549C12.2471 25.8293 12.2471 25.8036 12.2348 25.7908C12.2471 25.778 12.2471 25.7652 12.2471 25.7395C12.2471 25.7139 12.2348 25.6754 12.2225 25.6497C12.2225 25.6113 12.2225 25.5728 12.1979 25.5471C12.1857 25.5343 12.1734 25.5343 12.1611 25.5215C12.1611 25.4958 12.1488 25.4702 12.1242 25.4445C12.112 25.4317 12.0751 25.4061 12.0137 25.4189C11.9891 25.4189 11.9645 25.4317 11.94 25.4445C11.9154 25.4574 11.8908 25.4574 11.8786 25.4574C11.8663 25.4574 11.8663 25.4574 11.854 25.4574C11.8049 25.4574 11.7557 25.4574 11.7066 25.483C11.6697 25.5087 11.6083 25.5728 11.596 25.6754C11.5469 25.701 11.4978 25.7139 11.3749 25.7139C11.2398 25.701 11.1292 25.6754 11.0801 25.6626C11.0801 25.6497 11.0801 25.6497 11.0801 25.6369C11.1047 25.483 11.1415 25.2906 11.117 25.1239V25.1111C11.1907 24.9572 11.2644 24.7776 11.1784 24.5339C11.117 24.4057 10.9818 24.3415 10.9204 24.303C10.9081 24.303 10.9081 24.303 10.9081 24.2902C10.8836 24.2774 10.859 24.2646 10.8467 24.2517C10.9204 24.2517 10.9941 24.2646 11.0064 24.2517C11.0801 24.2517 11.1661 24.2133 11.1661 24.1363C11.1661 24.1107 11.1661 24.0722 11.1784 24.0465C11.1907 24.0337 11.2152 24.0209 11.2152 23.9952C11.2275 23.9696 11.2275 23.9439 11.2152 23.9311C11.2152 23.9311 11.2152 23.9311 11.2152 23.9183C11.2275 23.8926 11.2152 23.8542 11.2152 23.8413C11.2398 23.8285 11.2644 23.8157 11.2644 23.8157C11.3258 23.7772 11.2889 23.6874 11.2767 23.6618C11.2644 23.6489 11.2398 23.572 11.2275 23.5335C11.2152 23.5079 11.2152 23.495 11.2152 23.4822C11.2152 23.4694 11.2152 23.4181 11.2152 23.4053C11.2152 23.3796 11.2152 23.354 11.2152 23.3411C11.2152 23.3027 11.2029 23.1744 11.1292 23.0974C11.117 23.0205 11.0924 22.9692 10.9818 22.9307C10.9081 22.9051 10.6502 22.8025 10.4168 22.9051C10.3062 22.9435 10.208 23.0461 10.1343 23.1616C10.0605 23.2898 10.0237 23.4309 10.0605 23.5463C10.0728 23.6105 10.0851 23.6489 10.0974 23.6746C10.122 23.7515 10.122 23.7515 10.122 23.7772C10.122 23.79 10.122 23.8157 10.122 23.8285C10.122 23.867 10.122 23.9311 10.1097 23.9439C10.0974 23.9568 10.0974 23.9568 10.0851 23.9696C10.0605 23.9952 10.0605 23.9952 10.0605 23.9952C9.99913 24.0081 9.87629 24.0594 9.77802 24.1491C9.53234 24.1363 9.3358 24.2261 9.18839 24.3928C9.00413 24.4185 8.68475 24.5211 8.48821 24.675C8.47593 24.675 8.47593 24.6878 8.46364 24.6878C8.32852 24.7519 8.21796 24.8032 8.13198 25.0341C8.05827 25.2521 7.98457 25.4574 7.97229 25.8036C7.97229 25.9191 7.96 26.0217 7.96 26.0858C7.96 26.2141 7.96 26.291 7.93543 26.3551C7.92315 26.3936 7.91087 26.4193 7.91087 26.4449C7.8863 26.5091 7.86173 26.586 7.86173 26.663C7.86173 26.7656 7.86173 26.8169 7.8863 26.8553C7.89858 26.881 7.92315 26.9067 7.98457 26.9067C8.02142 26.9451 8.07056 26.9451 8.10741 26.9451C8.14426 26.9708 8.18111 26.9708 8.21796 26.9451C8.25482 26.9451 8.29167 26.9451 8.31624 26.9195C8.3408 26.9066 8.37766 26.8682 8.38994 26.804C8.40222 26.7656 8.40222 26.7271 8.41451 26.7143C8.42679 26.6886 8.42679 26.663 8.43907 26.6373C8.43907 26.5988 8.43907 26.4962 8.36537 26.4321C8.3408 26.4065 8.31624 26.3936 8.32852 26.291C8.32852 26.2525 8.32852 26.2141 8.32852 26.1756C8.32852 26.073 8.3408 25.9832 8.35309 25.9191C8.37766 25.8293 8.52506 25.4702 8.56191 25.3804C8.58648 25.3291 8.61105 25.2521 8.62333 25.188C8.75846 25.1752 9.05327 25.1495 9.23753 25.1111C9.22524 25.2265 9.21296 25.3291 9.20068 25.3547C9.16382 25.4317 9.09012 25.7523 9.07784 26.0473C9.0287 26.2654 8.94271 26.4449 8.81988 26.586L8.78302 26.6245L8.80759 26.6758C8.81987 26.7014 8.83216 26.7143 8.84444 26.7271C8.78302 26.804 8.68475 26.9451 8.6479 27.099C8.61105 27.2658 8.62333 27.5351 8.75846 27.7275C8.74617 27.766 8.73389 27.7916 8.7216 27.8173C8.68475 27.907 8.6479 28.0097 8.59876 28.2918C8.59876 28.3175 8.59877 28.3431 8.58648 28.3559C8.5742 28.5099 8.54963 28.6253 8.48821 28.7022C8.36537 28.5996 8.23025 28.4842 8.03371 28.4714C7.83716 28.4585 7.75118 28.4201 7.65291 28.3688C7.61605 28.3431 7.53007 28.3046 7.4318 28.2662C7.29667 28.202 7.08785 28.1123 7.02643 28.061C6.97729 27.8814 6.87902 27.689 6.7439 27.7275C6.63334 27.7531 6.53507 27.8044 6.44909 27.907L6.4368 27.9199C6.3631 28.0097 6.35081 28.0097 6.26483 28.0353C6.24026 28.0353 6.20341 28.0481 6.16656 28.0481C6.03143 28.061 5.85946 28.0866 5.69977 28.1892C5.57693 28.2662 5.51551 28.3303 5.50323 28.3944C5.49094 28.4329 5.51551 28.4714 5.51551 28.4714C5.54008 28.5355 5.6015 28.5483 5.69977 28.5355C5.72434 28.5355 5.73662 28.5355 5.76119 28.5227C5.83489 28.5099 5.94545 28.497 5.99458 28.5099C6.06828 28.5355 6.17884 28.5483 6.25254 28.5483C6.26483 28.5483 6.27711 28.5483 6.28939 28.5483C6.31396 28.5483 6.32625 28.5483 6.35081 28.5483C6.39995 28.5483 6.44909 28.5483 6.47365 28.5612L6.48594 28.574L6.67019 28.6253V28.6125C6.69476 28.6125 6.70705 28.5996 6.73161 28.5868C6.75618 28.574 6.76847 28.5612 6.78075 28.5483C6.84217 28.574 6.96501 28.6125 7.02643 28.6381C7.11241 28.6766 7.37038 28.8305 7.55463 28.9716C7.73889 29.1127 8.20568 29.4333 8.35309 29.5359C8.50049 29.6385 8.63562 29.7026 8.75846 29.6642C8.89358 29.6257 9.0287 29.3948 9.06555 29.3307C9.07784 29.3179 9.09012 29.305 9.1024 29.2922C9.20068 29.1768 9.42178 28.9587 9.54462 28.7407C9.59376 28.6509 9.63061 28.5996 9.65518 28.5483C9.66746 28.5227 9.69203 28.497 9.70431 28.4714C9.80259 28.574 9.92542 28.7022 10.208 28.8177C10.4659 28.9331 10.5273 28.9844 10.5273 28.9972C10.5273 29.0101 10.5396 29.0229 10.5396 29.0229C10.5519 29.0357 10.5642 29.0614 10.5642 29.2666C10.5519 29.5487 10.5396 29.7411 10.773 30.1772C10.9573 30.5106 11.0555 30.8698 11.1047 31.0621C11.117 31.1006 11.1292 31.1391 11.1292 31.1648C11.1661 31.293 11.1784 31.3571 11.1907 31.4982C11.1907 31.5752 11.1907 31.6393 11.1907 31.6906C11.1907 31.7547 11.1907 31.806 11.1907 31.8317V31.8445C11.2029 31.9215 11.2398 31.9984 11.3749 32.0241C11.3872 32.0241 11.4118 32.0369 11.4241 32.0369C11.5837 32.0497 11.6697 32.0112 11.7312 31.9984C11.7434 31.9984 11.7434 31.9984 11.7557 31.9856C11.7803 31.9856 11.8171 31.9984 11.854 31.9984C11.8663 31.9984 11.8663 31.9984 11.8786 32.0112C11.8786 32.0112 12.2471 32.101 12.6279 31.806C12.7876 31.6521 12.849 31.5367 12.8121 31.4341Z" fill="#EDEDED"/>
<path d="M16.6324 27.921C16.8657 26.7795 17.0991 25.6765 17.3202 24.5735C17.3448 24.458 17.3817 24.4196 17.4922 24.4196C18.0327 24.4324 18.5609 24.4196 19.126 24.4196C18.7206 26.4332 18.303 28.4212 17.8976 30.4476H17.7502C17.2588 30.4476 16.7552 30.4476 16.2638 30.4476C16.1533 30.4476 16.1041 30.4091 16.0673 30.3065C15.7479 29.319 15.4285 28.3442 15.1092 27.3566C15.0969 27.3053 15.0723 27.254 15.0232 27.2027C14.8021 28.2801 14.5809 29.3574 14.3598 30.4348H12.5787C12.6647 30.0244 12.7384 29.6396 12.8244 29.242C13.1314 27.7029 13.4508 26.1767 13.7579 24.6376C13.7948 24.4709 13.8439 24.4067 14.0159 24.4196C14.4704 24.4324 14.9126 24.4324 15.3671 24.4196C15.49 24.4196 15.5391 24.458 15.5759 24.5735C15.9076 25.638 16.2516 26.7025 16.5832 27.7671C16.5832 27.8055 16.6078 27.844 16.6324 27.921Z" fill="#EDEDED"/>
<path d="M47.207 27.5996C47.7843 27.9459 47.8335 28.4846 47.7598 29.0874C47.7352 29.3311 47.7106 29.5748 47.6984 29.8185C47.6984 30.0237 47.7229 30.2161 47.7352 30.4341C47.7229 30.4341 47.6738 30.4469 47.6369 30.4469C47.121 30.4469 46.6051 30.4469 46.0892 30.4469C45.9663 30.4469 45.9172 30.4085 45.9172 30.293C45.9172 30.0109 45.9418 29.7287 45.9541 29.4465C45.9663 29.2926 45.9909 29.1259 45.9786 28.972C45.9663 28.6385 45.8189 28.459 45.5118 28.4333C45.1925 28.4077 44.8731 28.4205 44.5291 28.4205C44.4677 28.7411 44.394 29.0746 44.3203 29.4209C44.2466 29.7544 44.1852 30.1007 44.1115 30.4341H42.318C42.3672 30.1904 42.4163 29.9467 42.4654 29.7159C42.8094 28.0101 43.1656 26.3171 43.5096 24.6113C43.5464 24.4574 43.5955 24.4061 43.743 24.4189C44.7502 24.4317 45.7575 24.4189 46.7648 24.4317C46.9613 24.4317 47.1579 24.4574 47.3544 24.5215C48.03 24.7139 48.4108 25.2782 48.3985 26.0221C48.3863 26.689 48.0914 27.1636 47.5264 27.4586C47.4035 27.497 47.3176 27.5483 47.207 27.5996ZM44.7994 27.0097C45.1065 27.0097 45.4136 27.0353 45.6961 26.9968C45.8926 26.9712 46.1015 26.9199 46.2734 26.8173C46.5068 26.6762 46.5928 26.4325 46.5314 26.1503C46.4823 25.8938 46.2857 25.7912 46.0646 25.7784C45.7207 25.7528 45.389 25.7784 45.0328 25.7784C44.9591 26.1247 44.8854 26.471 44.8116 26.8301C44.8239 26.8814 44.8117 26.9327 44.7994 27.0097Z" fill="#EDEDED"/>
<path d="M24.7766 26.4059H23.1305C23.1183 26.3931 23.1183 26.3802 23.106 26.3802C22.9586 25.7774 22.4426 25.5337 21.853 25.7902C21.5951 25.9057 21.3862 26.0852 21.2388 26.3161C20.9072 26.8163 20.7352 27.3806 20.7475 27.9963C20.7598 28.8684 21.5459 29.3429 22.2952 28.9454C22.5409 28.8171 22.7252 28.6247 22.848 28.3169H22.0496C22.1355 27.8808 22.2215 27.4704 22.3075 27.06H24.8011C24.752 27.3037 24.7029 27.5474 24.6537 27.791C24.4818 28.6247 24.3098 29.4712 24.1378 30.3049C24.1133 30.4075 24.0764 30.446 23.9781 30.446C23.6219 30.446 23.2779 30.446 22.9094 30.446C22.9463 30.2023 22.9709 29.9842 23.0077 29.7405C22.9709 29.7662 22.9586 29.7662 22.9463 29.779C22.3812 30.5742 21.2634 30.8307 20.293 30.369C19.5314 29.9971 19.1137 29.3429 18.9786 28.5221C18.7575 27.1369 19.1997 25.957 20.1824 25.0079C20.686 24.5077 21.3371 24.3281 22.0127 24.2896C22.5409 24.2512 23.0691 24.2768 23.585 24.4692C24.3958 24.7642 24.8871 25.5722 24.7766 26.4059Z" fill="#EDEDED"/>
<path d="M42.49 27.0859C42.4408 28.4198 41.9126 29.5228 40.7211 30.2026C39.8735 30.6899 38.9522 30.7284 38.0555 30.3693C37.0851 29.9845 36.5691 29.215 36.5077 28.1376C36.434 26.7012 36.9377 25.5212 38.1292 24.7517C38.9768 24.2002 39.9104 24.1104 40.8562 24.431C41.8021 24.7517 42.404 25.5982 42.4654 26.6499C42.4777 26.7653 42.4777 26.8935 42.49 27.0859ZM40.7211 26.8551C40.7211 26.8038 40.7211 26.7653 40.7211 26.714C40.672 26.0471 40.2789 25.6623 39.7138 25.7136C39.4436 25.7392 39.1979 25.8547 39.0136 26.0599C38.4732 26.6755 38.2152 27.3937 38.3135 28.2274C38.3994 28.8944 39.0136 29.2406 39.6033 28.997C39.8612 28.8815 40.0701 28.702 40.2297 28.4583C40.5491 27.9709 40.6965 27.4322 40.7211 26.8551Z" fill="#EDEDED"/>
<path d="M30.5501 26.2646H28.7935C28.7812 26.2133 28.7812 26.162 28.7689 26.1107C28.732 25.8157 28.5969 25.6746 28.3144 25.649C28.1424 25.6361 27.9704 25.6361 27.7985 25.6618C27.6142 25.6874 27.5282 25.8157 27.5159 25.9696C27.5036 26.1492 27.6142 26.2518 27.7616 26.3031C28.081 26.4057 28.4004 26.4955 28.7075 26.5981C28.8794 26.6494 29.0514 26.7007 29.2234 26.7648C30.2307 27.1367 30.5501 27.8678 30.2061 28.9323C29.9727 29.6377 29.5059 30.1251 28.818 30.3688C27.995 30.651 27.1474 30.6894 26.3121 30.4329C25.3294 30.1379 24.8503 29.176 25.1451 28.1371H26.9386C26.9386 28.1884 26.9386 28.2397 26.9263 28.291C26.8772 28.7015 27.0369 28.958 27.4177 29.0606C27.6879 29.1375 27.9459 29.1119 28.1915 28.9708C28.3389 28.8939 28.4372 28.7528 28.4372 28.5732C28.4372 28.3937 28.3389 28.2654 28.1793 28.2141C27.9459 28.1243 27.7125 28.073 27.4791 27.9961C27.2088 27.9063 26.9386 27.8293 26.6806 27.7395C25.7839 27.4189 25.5259 26.6878 25.747 25.8157C25.9436 25.0333 26.4349 24.5331 27.1965 24.3536C27.9213 24.1868 28.6583 24.1868 29.3831 24.3536C30.2552 24.5588 30.7589 25.3796 30.5501 26.2646Z" fill="#EDEDED"/>
<path d="M4.00455 26.983C4.69245 28.1373 5.38035 29.2659 6.08053 30.4331C6.01911 30.4331 5.96997 30.4459 5.92084 30.4459C5.31893 30.4459 4.71702 30.4459 4.1151 30.4459C4.00455 30.4459 3.94313 30.4074 3.89399 30.3048C3.55005 29.6251 3.2061 28.9581 2.84986 28.2784C2.8253 28.2271 2.78844 28.1758 2.76388 28.1245C2.57962 28.2912 2.39536 28.4451 2.22338 28.6118C2.18653 28.6375 2.17425 28.7016 2.16197 28.7529C2.03913 29.3172 1.92857 29.8816 1.81802 30.4459H0C0.0614195 30.1509 0.110555 29.8559 0.171975 29.5738C0.50364 27.9192 0.847589 26.2776 1.17925 24.623C1.20382 24.482 1.25296 24.4307 1.40036 24.4307C1.87944 24.4435 2.35851 24.4307 2.83758 24.4307H3.02184C2.899 25.0335 2.77616 25.6106 2.65332 26.2391C2.71474 26.1878 2.75159 26.1621 2.77616 26.1236C3.29208 25.5978 3.80801 25.0591 4.32393 24.5333C4.37307 24.482 4.44677 24.4435 4.50819 24.4435C5.25751 24.4307 5.99454 24.4435 6.74386 24.4435C6.76843 24.4435 6.78071 24.4435 6.82984 24.4563C5.8717 25.29 4.93813 26.1365 4.00455 26.983Z" fill="#EDEDED"/>
<path d="M32.1592 30.4339H30.3658C30.4518 30.0235 30.5255 29.6387 30.6114 29.2411C30.9185 27.7149 31.2379 26.1758 31.545 24.6495C31.5942 24.393 31.5327 24.4187 31.8153 24.4187C32.6506 24.4187 33.4736 24.4187 34.3089 24.4187C34.53 24.4187 34.7634 24.4315 34.9845 24.47C35.7338 24.6239 36.1761 25.1241 36.2743 25.9321C36.3849 26.8812 36.0655 27.6636 35.3039 28.2151C34.9599 28.4716 34.5423 28.5357 34.1246 28.5485C33.6579 28.5614 33.1911 28.5614 32.7366 28.5485C32.5892 28.5485 32.54 28.5998 32.5155 28.7409C32.3926 29.3053 32.2698 29.8568 32.1592 30.4339ZM33.0928 25.868C33.0068 26.2784 32.9331 26.6632 32.8471 27.0736C33.1296 27.0736 33.3753 27.0736 33.621 27.0736C33.6824 27.0736 33.7561 27.0736 33.8175 27.0736C34.1124 27.0479 34.3335 26.9069 34.4317 26.599C34.5546 26.2271 34.3949 25.9065 34.0509 25.868C33.7438 25.8552 33.4245 25.868 33.0928 25.868Z" fill="#EDEDED"/>
<path d="M50.3148 25.9452H48.6565C48.767 25.4193 48.8653 24.932 48.9636 24.4189H53.9877C53.8894 24.9063 53.7912 25.3937 53.6929 25.8682C53.6806 25.9067 53.6069 25.9452 53.5578 25.9452C53.1401 25.9452 52.7347 25.958 52.3171 25.9452C52.1697 25.9452 52.1205 25.9965 52.096 26.1376C51.8135 27.5612 51.5186 28.9977 51.2238 30.4342H49.3935C49.7006 28.9464 50.0077 27.4586 50.3148 25.9452Z" fill="#EDEDED"/>
</g>
<defs>
<linearGradient id="paint0_linear" x1="13.4515" y1="10.6716" x2="40.546" y2="10.6716" gradientUnits="userSpaceOnUse">
<stop stop-color="#EDB32D"/>
<stop offset="0.0111557" stop-color="#EDB32D"/>
<stop offset="0.0809098" stop-color="#EEB532"/>
<stop offset="0.1692" stop-color="#F1BB42"/>
<stop offset="0.2673" stop-color="#F7C55C"/>
<stop offset="0.3721" stop-color="#FED380"/>
<stop offset="0.3882" stop-color="#FFD586"/>
<stop offset="0.3954" stop-color="#FCD282"/>
<stop offset="0.4772" stop-color="#E2B65D"/>
<stop offset="0.5533" stop-color="#CFA243"/>
<stop offset="0.6209" stop-color="#C39533"/>
<stop offset="0.6732" stop-color="#BF912D"/>
<stop offset="0.7322" stop-color="#C9992E"/>
<stop offset="0.8306" stop-color="#E4AE32"/>
<stop offset="0.8706" stop-color="#EDBB4D"/>
<stop offset="0.9519" stop-color="#FFD481"/>
<stop offset="1" stop-color="#FFD481"/>
</linearGradient>
<clipPath id="clip0">
<rect width="54" height="32" fill="white"/>
</clipPath>
</defs>
</svg>
