<svg width="100%" height="100%" viewBox="0 0 42 42" fill="none" xmlns="http://www.w3.org/2000/svg">
<g clip-path="url(#clip0)">
<path d="M40.6002 0.700012H1.4002C1.0136 0.700012 0.700195 1.01341 0.700195 1.40001V40.6C0.700195 40.9866 1.0136 41.3 1.4002 41.3H40.6002C40.9868 41.3 41.3002 40.9866 41.3002 40.6V1.40001C41.3002 1.01341 40.9868 0.700012 40.6002 0.700012Z" fill="#BFC5E6" stroke="#949ED5" stroke-width="2"/>
<path d="M39.2004 1.39999H2.80039C2.02719 1.39999 1.40039 2.0268 1.40039 2.79999V39.2C1.40039 39.9732 2.02719 40.6 2.80039 40.6H39.2004C39.9736 40.6 40.6004 39.9732 40.6004 39.2V2.79999C40.6004 2.0268 39.9736 1.39999 39.2004 1.39999Z" fill="#BFC5E6"/>
<path d="M7.86719 11.0251L7.86719 28.5951C7.86719 28.9334 8.14141 29.2076 8.47969 29.2076H33.5206C33.8589 29.2076 34.1331 28.9334 34.1331 28.5951V11.0251C34.1331 10.6868 33.8589 10.4126 33.5206 10.4126H8.47969C8.14141 10.4126 7.86719 10.6868 7.86719 11.0251Z" fill="#CDE7FC" stroke="#757575" stroke-width="1.75"/>
<path d="M13.2998 17.9199H14.6299V25.8999H13.2998V17.9199Z" fill="#1CC3D8"/>
<path d="M16.835 22.9599H18.165V25.8999H16.835V22.9599Z" fill="#1CC3D8"/>
<path d="M20.3701 21.6999H21.7001V25.8999H20.3701V21.6999Z" fill="#1CC3D8"/>
<path d="M23.9053 17.9199H25.2353V25.8999H23.9053V17.9199Z" fill="#1CC3D8"/>
<path d="M27.4395 22.8199H28.7695V25.8999H27.4395V22.8199Z" fill="#1CC3D8"/>
<path d="M14.748 13.3H16.0781V25.9H14.748V13.3Z" fill="#39A1F4"/>
<path d="M18.2832 17.0799H19.6133V25.8999H18.2832V17.0799Z" fill="#39A1F4"/>
<path d="M21.8184 14.4199H23.1484V25.8999H21.8184V14.4199Z" fill="#39A1F4"/>
<path d="M25.3535 21.9799H26.6835V25.8999H25.3535V21.9799Z" fill="#39A1F4"/>
<path d="M28.8877 19.18H30.2177V25.9H28.8877V19.18Z" fill="#39A1F4"/>
<path d="M4.96996 31.745C4.75733 31.745 4.58496 31.9174 4.58496 32.13C4.58496 32.3426 4.75733 32.515 4.96996 32.515H37.03C37.2426 32.515 37.415 32.3426 37.415 32.13C37.415 31.9174 37.2426 31.745 37.03 31.745L4.96996 31.745Z" fill="white" stroke="#757575" stroke-width="1.1"/>
</g>
<defs>
<clipPath id="clip0">
<rect width="42" height="42" fill="white"/>
</clipPath>
</defs>
</svg>
