<svg width="60" height="60" viewBox="0 0 60 60" fill="none" xmlns="http://www.w3.org/2000/svg">
<rect x="1" y="1" width="58" height="58" rx="1" fill="#FFC571" stroke="#FFC571" stroke-width="2"/>
<rect x="2" y="2" width="56" height="56" rx="2" fill="#FFD08D"/>
<path d="M44.4198 34.4971V44.6321C44.4198 46.6691 41.2556 48.4366 36.6101 49.3273C34.345 49.7472 32.0455 49.9534 29.7418 49.9432C21.6341 49.9432 15.0637 47.5671 15.0637 44.6321V34.4971C15.0637 37.4331 21.6341 39.8092 29.7418 39.8092C37.8494 39.8092 44.4198 37.4331 44.4198 34.4971Z" fill="#E8E8E8"/>
<path d="M44.4198 34.2878V34.497C44.4198 37.433 37.8494 39.8091 29.7418 39.8091C21.6341 39.8091 15.0637 37.433 15.0637 34.497V24.4327C15.0637 27.3677 21.6341 29.7448 29.7418 29.7448C37.8494 29.7448 44.4198 27.3677 44.4198 24.4327V34.2878Z" fill="#E8E8E8"/>
<path d="M44.4198 14.3674V24.4327C44.4198 27.3677 37.8494 29.7448 29.7418 29.7448C21.6341 29.7448 15.0637 27.3677 15.0637 24.4327V14.3674C15.0637 17.3013 21.6352 19.6795 29.7418 19.6795C37.8483 19.6795 44.4198 17.3013 44.4198 14.3674Z" fill="#E8E8E8"/>
<path d="M29.742 9.36002C37.8752 9.36002 44.4683 11.6336 44.4683 14.4376C44.4683 17.2415 37.8752 19.5161 29.742 19.5161C21.6087 19.5161 15.0156 17.2425 15.0156 14.4376C15.0156 11.6326 21.6087 9.36002 29.742 9.36002Z" fill="#E8E8E8"/>
<path d="M40.4842 9.61878C37.5994 8.57485 33.7839 8 29.7438 8C25.7038 8 21.8854 8.57485 19.0007 9.61878C14.8714 11.1129 14 13.0259 14 14.3676V44.6322C14 45.974 14.8705 47.8881 18.9995 49.3819C21.8838 50.4253 25.699 50.9998 29.7401 50.9998C32.112 51.0085 34.4795 50.7959 36.812 50.3649C42.3202 49.3094 45.4839 47.2195 45.4839 44.6322V14.3676C45.4839 13.0259 44.6134 11.1129 40.4842 9.61878ZM41.7247 46.4991C40.4524 47.2484 38.6145 47.8675 36.4126 48.2897C34.2128 48.6955 31.9798 48.8953 29.7429 48.8866C25.9407 48.8866 22.3781 48.3567 19.7188 47.3947C17.0639 46.4342 16.113 45.3379 16.113 44.6322V37.8271C17.0136 38.4165 17.9829 38.8936 18.9994 39.2478C21.8837 40.2912 25.6989 40.8658 29.7401 40.8658C33.7814 40.8658 37.5997 40.2912 40.4836 39.2478C41.5003 38.8936 42.4699 38.4165 43.3709 37.8271V44.6322C43.3709 45.2041 42.7687 45.8846 41.7247 46.4991ZM43.3709 34.4972C43.3709 35.2031 42.4211 36.3 39.7656 37.2608C37.1064 38.2229 33.5461 38.7528 29.7438 38.7528C25.9416 38.7528 22.3784 38.2229 19.7193 37.2608C17.0639 36.3 16.113 35.2031 16.113 34.4972V27.7624C17.0136 28.3518 17.9829 28.8289 18.9994 29.1829C21.8837 30.2267 25.6991 30.8015 29.7401 30.8015C33.7812 30.8015 37.5995 30.2267 40.4837 29.1829C41.5003 28.8288 42.47 28.3518 43.3709 27.7624V34.4972ZM39.7656 27.1961C37.1058 28.1581 33.5454 28.6885 29.7438 28.6885C25.9423 28.6885 22.3787 28.1585 19.7193 27.1961C17.0639 26.2353 16.113 25.1386 16.113 24.4329V17.6964C17.0137 18.2859 17.9831 18.7632 18.9997 19.1173C21.884 20.1612 25.6999 20.7362 29.7401 20.7362C33.7804 20.7362 37.5987 20.1612 40.4832 19.1173C41.5001 18.7632 42.4699 18.2859 43.3709 17.6964V24.4329C43.3709 25.1386 42.4211 26.2353 39.7656 27.1961ZM39.7614 17.1303C37.1015 18.093 33.5431 18.6232 29.7419 18.6232C25.9407 18.6232 22.3824 18.093 19.7225 17.1303C17.0666 16.1689 16.1204 15.073 16.1204 14.3676C16.1204 13.6621 17.0666 12.5666 19.7225 11.6056C22.3825 10.6432 25.9408 10.113 29.7419 10.113C33.543 10.113 37.1014 10.6432 39.7614 11.6056C42.4173 12.5671 43.3635 13.6625 43.3635 14.3676C43.3635 15.0727 42.4173 16.1692 39.7614 17.1303Z" fill="#757575"/>
<path d="M32.1722 23.4779H27.3122C26.7287 23.4779 26.2557 23.9509 26.2557 24.5344C26.2557 25.1179 26.7287 25.5909 27.3122 25.5909H32.1722C32.7557 25.5909 33.2287 25.1179 33.2287 24.5344C33.2287 23.9509 32.7557 23.4779 32.1722 23.4779Z" fill="#39A1F4"/>
<path d="M32.1722 33.4091H27.3122C26.7287 33.4091 26.2557 33.8821 26.2557 34.4656C26.2557 35.0491 26.7287 35.5221 27.3122 35.5221H32.1722C32.7557 35.5221 33.2287 35.0491 33.2287 34.4656C33.2287 33.8821 32.7557 33.4091 32.1722 33.4091Z" fill="#39A1F4"/>
<path d="M32.1722 43.6569H27.3122C26.7287 43.6569 26.2557 44.1299 26.2557 44.7134C26.2557 45.2969 26.7287 45.7699 27.3122 45.7699H32.1722C32.7557 45.7699 33.2287 45.2969 33.2287 44.7134C33.2287 44.1299 32.7557 43.6569 32.1722 43.6569Z" fill="#39A1F4"/>
</svg>
