<svg width="60" height="60" viewBox="0 0 60 60" fill="none" xmlns="http://www.w3.org/2000/svg">
<path d="M2 1H58C58.5523 1 59 1.44772 59 2V58C59 58.5523 58.5523 59 58 59H2C1.44772 59 1 58.5523 1 58V2C1 1.44772 1.44772 1 2 1Z" fill="#6BB9F7" stroke="#6BB9F7" stroke-width="2"/>
<rect x="2" y="2" width="56" height="56" rx="2" fill="#83C4F8"/>
<path fill-rule="evenodd" clip-rule="evenodd" d="M8 17C6.89543 17 6 17.8954 6 19V21C6 22.1046 6.89543 23 8 23H18C19.1046 23 20 22.1046 20 21V19C20 17.8954 19.1046 17 18 17H8ZM8 25C6.89543 25 6 25.8954 6 27V29C6 30.1046 6.89543 31 8 31H18C19.1046 31 20 30.1046 20 29V27C20 25.8954 19.1046 25 18 25H8ZM6 36C6 34.8954 6.89543 34 8 34H18C19.1046 34 20 34.8954 20 36V38C20 39.1046 19.1046 40 18 40H8C6.89543 40 6 39.1046 6 38V36ZM24 17C22.8954 17 22 17.8954 22 19V21C22 22.1046 22.8954 23 24 23H34C35.1046 23 36 22.1046 36 21V19C36 17.8954 35.1046 17 34 17H24ZM22 27C22 25.8954 22.8954 25 24 25H34C35.1046 25 36 25.8954 36 27V27.4209C34.8035 28.2619 33.8256 29.3105 33.1312 30.4991C33.036 30.664 32.9466 30.8311 32.8631 31H24C22.8954 31 22 30.1046 22 29V27ZM32.0259 34H24C22.8954 34 22 34.8954 22 36V38C22 39.1046 22.8954 40 24 40H33.9808C33.5413 39.4651 33.1672 38.8909 32.8656 38.2863C32.2906 37.1302 32 35.9043 32 34.6382C32.0001 34.4249 32.0088 34.2121 32.0259 34ZM51.9861 29.2374C51.9953 29.1596 52 29.0803 52 29V27C52 25.8954 51.1046 25 50 25H45.6649C46.6919 26.7928 47.156 28.4471 47.05 29.9278C47.0469 29.9761 47.0687 30.0243 47.1125 30.0565C47.1594 30.0941 47.2125 30.0995 47.2469 30.0968C47.2812 30.0941 47.3312 30.0834 47.375 30.0431C48.0344 29.4127 48.5 28.7716 48.7531 28.1439L49.1594 27.1434C49.1734 27.1099 49.1967 27.08 49.2273 27.0561C49.258 27.0322 49.295 27.0152 49.3351 27.0064C49.3752 26.9977 49.4172 26.9975 49.4574 27.006C49.4976 27.0144 49.5347 27.0312 49.5656 27.0549L50.475 27.7711C51.0387 28.2141 51.5449 28.7059 51.9861 29.2374ZM44.2371 23H50C51.1046 23 52 22.1046 52 21V19C52 17.8954 51.1046 17 50 17H40C38.8954 17 38 17.8954 38 19V21C38 21.9273 38.6311 22.7072 39.4872 22.9336C39.5706 22.4981 39.599 22.0226 39.5719 21.5129L39.5031 20.2253C39.4937 20.0563 39.7094 19.9436 39.8781 20.0295L41.1687 20.6813C42.3547 21.282 43.3819 22.0576 44.2371 23Z" fill="#E8E8E8"/>
<path d="M53.1081 31.9292C52.529 30.8548 51.6871 29.8904 50.6352 29.0965L49.7672 28.44C49.7377 28.4183 49.7022 28.4029 49.6639 28.3952C49.6255 28.3874 49.5854 28.3876 49.5471 28.3956C49.5088 28.4036 49.4735 28.4192 49.4443 28.4411C49.415 28.463 49.3927 28.4905 49.3794 28.5211L48.9916 29.4383C48.75 30.0137 47.9161 30.6137 47.2867 31.1915C46.9104 31.2284 47.5866 31.2259 47.5538 31.2284C47.521 31.2309 47.4703 31.2259 47.4256 31.1915C47.3838 31.162 46.687 31.2727 46.69 31.2284C46.8003 29.7481 45.6753 27.3172 44.5 25.5C43.5276 23.9903 42.2084 22.8213 40.52 22C40.3589 21.9214 40.1531 22.0246 40.1621 22.1795L40.2277 23.3598C40.2724 24.1664 40.1591 24.8795 39.8906 25.4721C39.5625 26.1974 39.0912 26.8712 38.4886 27.4761C38.0693 27.8965 37.594 28.2767 37.0717 28.6096C35.8138 29.4067 34.791 30.4281 34.0798 31.5972C33.3704 32.7766 33.0009 34.075 33 35.3914C33 36.552 33.2774 37.6757 33.8263 38.7355C34.3562 39.7559 35.1211 40.6819 36.0784 41.4625C37.0449 42.2493 38.1665 42.869 39.4163 43.2993C40.7109 43.7468 42.0831 43.973 43.5 43.973C44.9169 43.973 46.289 43.7468 47.5837 43.3017C48.8304 42.8739 49.9642 42.2501 50.9216 41.4649C51.888 40.6781 52.6457 39.7584 53.1737 38.738C53.7217 37.6811 54.0029 36.5432 54 35.3938C54 34.1939 53.7017 33.0283 53.1081 31.9292Z" fill="#F56C62"/>
</svg>
