<svg width="60" height="60" viewBox="0 0 60 60" fill="none" xmlns="http://www.w3.org/2000/svg">
<path d="M0 2C0 0.895432 0.895431 0 2 0H58C59.1046 0 60 0.895431 60 2V58C60 59.1046 59.1046 60 58 60H2C0.895432 60 0 59.1046 0 58V2Z" fill="#55D2E2"/>
<path d="M2 4C2 2.89543 2.89543 2 4 2H56C57.1046 2 58 2.89543 58 4V56C58 57.1046 57.1046 58 56 58H4C2.89543 58 2 57.1046 2 56V4Z" fill="#8DE1EB"/>
<path fill-rule="evenodd" clip-rule="evenodd" d="M19.7548 46.9654C19.4124 46.9915 19.066 47.003 18.7162 46.9993C12.1782 46.9302 6.93292 41.5742 7.00065 35.0363C7.05944 29.3608 11.1026 24.6604 16.4453 23.5643C18.2249 17.4577 23.8165 13 30.439 13C38.1363 13 44.441 19.0221 44.9861 26.6559C50.0533 27.202 54 31.5336 54 36.7963C54 42.4287 49.4792 46.9947 43.9024 46.9947C43.6983 46.9947 43.4956 46.9886 43.2945 46.9765C43.2062 46.9885 43.116 46.9946 43.0244 46.9946H20.0975C19.9807 46.9946 19.8662 46.9846 19.7548 46.9654Z" fill="white"/>
</svg>
