<svg width="60" height="60" viewBox="0 0 60 60" fill="none" xmlns="http://www.w3.org/2000/svg">
<rect x="1" y="1" width="58" height="58" rx="1" fill="#BFC5E6" stroke="#949ED5" stroke-width="2"/>
<rect x="2" y="2" width="56" height="56" rx="2" fill="#BFC5E6"/>
<rect x="11.2386" y="41.7251" width="26.85" height="37.5227" rx="0.875" transform="rotate(-90 11.2386 41.7251)" fill="#CDE7FC" stroke="#757575" stroke-width="1.75"/>
<path d="M19 25.5999H20.9001V36.9999H19V25.5999Z" fill="#1CC3D8"/>
<path d="M24.05 32.7998H25.95V36.9998H24.05V32.7998Z" fill="#1CC3D8"/>
<path d="M29.0998 30.9999H30.9998V36.9999H29.0998V30.9999Z" fill="#1CC3D8"/>
<path d="M34.1498 25.5998H36.0498V36.9998H34.1498V25.5998Z" fill="#1CC3D8"/>
<path d="M39.1998 32.5998H41.0999V36.9998H39.1998V32.5998Z" fill="#1CC3D8"/>
<path d="M21.069 19H22.9691V37H21.069V19Z" fill="#39A1F4"/>
<path d="M26.1188 24.3998H28.0189V36.9998H26.1188V24.3998Z" fill="#39A1F4"/>
<path d="M31.1688 20.5999H33.0688V36.9999H31.1688V20.5999Z" fill="#39A1F4"/>
<path d="M36.2188 31.3998H38.1188V36.9998H36.2188V31.3998Z" fill="#39A1F4"/>
<path d="M41.2686 27.4H43.1686V37H41.2686V27.4Z" fill="#39A1F4"/>
<rect x="6.55" y="46.45" width="1.1" height="46.9" rx="0.55" transform="rotate(-90 6.55 46.45)" fill="white" stroke="#757575" stroke-width="1.1"/>
</svg>
