<svg width="60" height="60" viewBox="0 0 60 60" fill="none" xmlns="http://www.w3.org/2000/svg">
<rect x="1" y="1" width="58" height="58" rx="1" fill="#949ED5" stroke="#949ED5" stroke-width="2"/>
<rect x="2" y="2" width="56" height="56" rx="2" fill="#BFC5E6"/>
<rect x="9" y="14" width="42" height="25.0352" rx="1" fill="#CDE7FC" stroke="#757575" stroke-width="2"/>
<rect x="28.3903" y="38.6833" width="2.75" height="6.75879" rx="1.375" fill="#757575"/>
<path d="M40.1951 45.4546C40.1951 46.3082 35.6306 47.0001 30 47.0001C24.3694 47.0001 19.8049 46.3082 19.8049 45.4546C19.8049 44.6011 24.3694 43.9092 30 43.9092C35.6306 43.9092 40.1951 44.6011 40.1951 45.4546Z" fill="#757575"/>
<path d="M18 24.5999H19.9001V35.9999H18V24.5999Z" fill="#1CC3D8"/>
<path d="M23.05 31.7998H24.95V35.9998H23.05V31.7998Z" fill="#1CC3D8"/>
<path d="M28.0998 29.9999H29.9998V35.9999H28.0998V29.9999Z" fill="#1CC3D8"/>
<path d="M33.1498 24.5998H35.0498V35.9998H33.1498V24.5998Z" fill="#1CC3D8"/>
<path d="M38.1998 31.5998H40.0999V35.9998H38.1998V31.5998Z" fill="#1CC3D8"/>
<path d="M20.069 18H21.9691V36H20.069V18Z" fill="#39A1F4"/>
<path d="M25.1188 23.3998H27.0189V35.9998H25.1188V23.3998Z" fill="#39A1F4"/>
<path d="M30.1688 19.5999H32.0688V35.9999H30.1688V19.5999Z" fill="#39A1F4"/>
<path d="M35.2188 30.3998H37.1188V35.9998H35.2188V30.3998Z" fill="#39A1F4"/>
<path d="M40.2686 26.4H42.1686V36H40.2686V26.4Z" fill="#39A1F4"/>
</svg>
