<svg width="60" height="60" viewBox="0 0 60 60" fill="none" xmlns="http://www.w3.org/2000/svg">
<rect x="1" y="1" width="58" height="58" rx="1" fill="#BFC5E6" stroke="#949ED5" stroke-width="2"/>
<rect x="2" y="2" width="56" height="56" rx="2" fill="#BFC5E6"/>
<path d="M38 14H24C23.4696 14 22.9609 14.2408 22.5858 14.6695C22.2107 15.0981 22 15.6795 22 16.2857V43.7143C22 44.3205 22.2107 44.9019 22.5858 45.3305C22.9609 45.7592 23.4696 46 24 46H38C38.5304 46 39.0391 45.7592 39.4142 45.3305C39.7893 44.9019 40 44.3205 40 43.7143V16.2857C40 15.6795 39.7893 15.0981 39.4142 14.6695C39.0391 14.2408 38.5304 14 38 14V14ZM32 43.7143H30V41.4286H32V43.7143ZM24 39.1429V16.2857H38V39.1429H24Z" fill="#757575"/>
<rect x="24" y="16" width="14" height="24" fill="#CDE7FC"/>
<path d="M30 41.3945H31H32V43.8945H30V41.3945Z" fill="#C4C4C4"/>
</svg>
